<?xml version="1.0" encoding="UTF-8"?>
<svg id="Capa_2" data-name="Capa 2" xmlns="http://www.w3.org/2000/svg" viewBox="0 0 48.44 64.42">
  <defs>
    <style>
      .cls-1 {
        fill: #6e5e41;
      }

      .cls-1, .cls-2, .cls-3 {
        stroke-width: 0px;
      }

      .cls-2 {
        fill: #163756;
      }

      .cls-3 {
        fill: #f5f4f5;
      }
    </style>
  </defs>
  <g id="Capa_1-2" data-name="Capa 1">
    <g>
      <path class="cls-2" d="m27.21,62.97c6.47-8.1,21.23-27.73,21.23-38.75C48.44,10.85,37.59,0,24.22,0S0,10.85,0,24.22c0,11.03,14.76,30.65,21.23,38.75,1.55,1.93,4.43,1.93,5.98,0h0Z"/>
      <circle class="cls-3" cx="24.22" cy="24.22" r="19.39"/>
      <path class="cls-1" d="m29.8,23.6c2.05,0,3.72-1.67,3.72-3.72s-1.67-3.72-3.72-3.72c-1.37,0-2.58.75-3.22,1.86h-2.04c.77-2.16,2.83-3.72,5.26-3.72,3.08,0,5.58,2.5,5.58,5.58s-2.5,5.58-5.58,5.58c-1.07,0-2.07-.3-2.92-.82l1.37-1.37c.47.22,1,.34,1.55.34h0Zm-16.66-3.76c.14-.35.48-.57.86-.57h14.25c.38,0,.72.22.86.57s.07.75-.2,1.01l-6.85,6.85v4.57h2.48c.52,0,.93.41.93.93s-.41.93-.93.93h-6.82c-.52,0-.93-.41-.93-.93s.41-.93.93-.93h2.48v-4.57l-6.85-6.85c-.27-.27-.34-.67-.2-1.01Z"/>
    </g>
  </g>
</svg>