<?xml version="1.0" encoding="UTF-8"?>
<svg id="Capa_2" data-name="Capa 2" xmlns="http://www.w3.org/2000/svg" viewBox="0 0 48.44 64.42">
  <defs>
    <style>
      .cls-1 {
        fill: #6e5e41;
      }

      .cls-1, .cls-2, .cls-3 {
        stroke-width: 0px;
      }

      .cls-2 {
        fill: #163756;
      }

      .cls-3 {
        fill: #f5f4f5;
      }
    </style>
  </defs>
  <g id="Capa_1-2" data-name="Capa 1">
    <g>
      <path class="cls-2" d="m27.21,62.97c6.47-8.1,21.23-27.73,21.23-38.75C48.44,10.85,37.59,0,24.22,0S0,10.85,0,24.22c0,11.03,14.76,30.65,21.23,38.75,1.55,1.93,4.43,1.93,5.98,0h0Z"/>
      <circle class="cls-3" cx="24.22" cy="24.22" r="19.39"/>
      <path class="cls-1" d="m21.33,15.4h5.78c.18,0,.32.14.32.32v1.61h-6.42v-1.61c0-.18.14-.32.32-.32Zm-2.25.32v1.61h-2.57c-1.42,0-2.57,1.15-2.57,2.57v3.85h20.55v-3.85c0-1.42-1.15-2.57-2.57-2.57h-2.57v-1.61c0-1.24-1.01-2.25-2.25-2.25h-5.78c-1.24,0-2.25,1.01-2.25,2.25Zm15.42,9.31h-7.71v1.28c0,.71-.57,1.28-1.28,1.28h-2.57c-.71,0-1.28-.57-1.28-1.28v-1.28h-7.71v5.14c0,1.42,1.15,2.57,2.57,2.57h15.42c1.42,0,2.57-1.15,2.57-2.57v-5.14Z"/>
    </g>
  </g>
</svg>