<?xml version="1.0" encoding="UTF-8"?>
<svg id="Capa_2" data-name="Capa 2" xmlns="http://www.w3.org/2000/svg" viewBox="0 0 48.44 64.42">
  <defs>
    <style>
      .cls-1 {
        fill: #6e5e41;
      }

      .cls-1, .cls-2, .cls-3 {
        stroke-width: 0px;
      }

      .cls-2 {
        fill: #163756;
      }

      .cls-3 {
        fill: #f5f4f5;
      }
    </style>
  </defs>
  <g id="Capa_1-2" data-name="Capa 1">
    <g>
      <path class="cls-2" d="m27.21,62.97c6.47-8.1,21.23-27.73,21.23-38.75C48.44,10.85,37.59,0,24.22,0S0,10.85,0,24.22c0,11.03,14.76,30.65,21.23,38.75,1.55,1.93,4.43,1.93,5.98,0h0Z"/>
      <circle class="cls-3" cx="24.22" cy="24.22" r="19.39"/>
      <path class="cls-1" d="m15.49,16.74c0-.69.56-1.25,1.25-1.25h1.25c.69,0,1.25.56,1.25,1.25v14.97c0,.69-.56,1.25-1.25,1.25h-1.25c-.69,0-1.25-.56-1.25-1.25v-2.49h-1.25c-.69,0-1.25-.56-1.25-1.25v-2.49c-.69,0-1.25-.56-1.25-1.25s.56-1.25,1.25-1.25v-2.49c0-.69.56-1.25,1.25-1.25h1.25v-2.49Zm17.46,0v2.49h1.25c.69,0,1.25.56,1.25,1.25v2.49c.69,0,1.25.56,1.25,1.25s-.56,1.25-1.25,1.25v2.49c0,.69-.56,1.25-1.25,1.25h-1.25v2.49c0,.69-.56,1.25-1.25,1.25h-1.25c-.69,0-1.25-.56-1.25-1.25v-14.97c0-.69.56-1.25,1.25-1.25h1.25c.69,0,1.25.56,1.25,1.25Zm-4.99,6.24v2.49h-7.48v-2.49h7.48Z"/>
    </g>
  </g>
</svg>