<?xml version="1.0" encoding="UTF-8"?>
<svg id="Capa_2" data-name="Capa 2" xmlns="http://www.w3.org/2000/svg" viewBox="0 0 48.44 64.42">
  <defs>
    <style>
      .cls-1 {
        fill: #6e5e41;
      }

      .cls-1, .cls-2, .cls-3 {
        stroke-width: 0px;
      }

      .cls-2 {
        fill: #163756;
      }

      .cls-3 {
        fill: #f5f4f5;
      }
    </style>
  </defs>
  <g id="Capa_1-2" data-name="Capa 1">
    <g>
      <path class="cls-2" d="m27.21,62.97c6.47-8.1,21.23-27.73,21.23-38.75C48.44,10.85,37.59,0,24.22,0S0,10.85,0,24.22c0,11.03,14.76,30.65,21.23,38.75,1.55,1.93,4.43,1.93,5.98,0h0Z"/>
      <circle class="cls-3" cx="24.22" cy="24.22" r="19.39"/>
      <path class="cls-1" d="m38.57,21.11h-1.37l-2.02-4.37c.33-.21.54-.57.54-.97,0-.64-.52-1.16-1.16-1.16s-1.16.52-1.16,1.16c0,.37.17.7.45.91l-4.44,4.42h-1.88c-.14,0-.25.11-.25.25v1.86c0,.14.11.25.25.25h.71c-.04,3.85-1.46,6.58-4.35,8.35-3.38-2.35-3.85-7.2-3.92-8.35h.94c.14,0,.25-.11.25-.25v-1.86c0-.14-.11-.25-.25-.25h-1.76l-4.41-4.62c.16-.2.25-.45.25-.72,0-.64-.52-1.16-1.16-1.16s-1.16.52-1.16,1.16c0,.3.11.57.31.78l-1.76,4.55h-1.36c-.14,0-.25.11-.25.25v1.86c0,.14.11.25.25.25h.79c.31,5.31,3.37,9.26,8.05,10.35.02,0,.04,0,.06,0,0,0,0,0,0,0l9.66-.21s0,0,0,0c0,0,0,0,0,0h.46s0,0,0,0c.43-.01.9-.06,1.41-.13,6.53-.96,7.34-8.54,7.44-10.01h.84c.14,0,.25-.11.25-.25v-1.86c0-.14-.11-.25-.25-.25Zm-3.83-4.13l1.91,4.13h-2.9l.99-4.13Zm-.52.04l-.98,4.09h-3.13l4.11-4.09Zm-19.11,4.09l-.97-4.22c.08-.02.15-.05.22-.08l4.11,4.3h-3.36Zm-1.7-4.26c.07.03.15.05.23.07l.97,4.2h-2.84l1.65-4.26Zm-3.29,4.76h1.28s0,0,0,0,0,0,0,0h9.26v1.36h-10.55v-1.36Zm28.21,1.36h-10.55v-1.36h5.66s0,0,0,0c0,0,0,0,0,0h3.6s0,0,0,0,0,0,0,0h1.28v1.36Z"/>
    </g>
  </g>
</svg>