<svg width="65" height="44" viewBox="0 0 65 44" fill="none" xmlns="http://www.w3.org/2000/svg">
<path d="M64.3611 14.9972H61.2999L56.821 5.28482C57.5486 4.81993 58.0128 4.02836 58.0128 3.13628C58.0128 1.71649 56.8586 0.560547 55.4283 0.560547C53.9981 0.560547 52.8564 1.71649 52.8564 3.13628C52.8564 3.95297 53.2328 4.69427 53.8476 5.17172L43.9864 15.0097H39.8085C39.5074 15.0097 39.2565 15.261 39.2565 15.5626V19.7089C39.2565 20.0104 39.5074 20.2617 39.8085 20.2617H41.3893C41.3015 28.8182 38.1399 34.9119 31.7163 38.8446C24.2013 33.6304 23.16 22.8249 23.0094 20.2617H25.092C25.3932 20.2617 25.6441 20.0104 25.6441 19.7089V15.5626C25.6441 15.261 25.3932 15.0097 25.092 15.0097H21.1902L11.3918 4.74453C11.7556 4.29221 11.9564 3.73937 11.9564 3.14883C11.9564 1.72904 10.8021 0.573124 9.37188 0.573124C7.94164 0.573124 6.79994 1.72904 6.79994 3.14883C6.79994 3.80219 7.05087 4.41786 7.48998 4.88274L3.57562 15.0097H0.552028C0.250924 15.0097 0 15.261 0 15.5626V19.7089C0 20.0104 0.250924 20.2617 0.552028 20.2617H2.30846C2.98595 32.0724 9.79845 40.8801 20.1991 43.2925C20.2367 43.2925 20.2869 43.305 20.3246 43.305L41.7782 42.8402L42.7945 42.815C42.7945 42.815 42.7945 42.815 42.807 42.815C43.7605 42.7773 44.8144 42.6894 45.931 42.5261C60.4467 40.3901 62.2408 23.5159 62.4541 20.2617H64.3235C64.6246 20.2617 64.8755 20.0104 64.8755 19.7089V15.5626C64.8755 15.261 64.6246 15.0097 64.3235 15.0097L64.3611 14.9972ZM55.8549 5.79995L60.0954 14.9972H53.6593L55.8549 5.79995ZM54.7007 5.88791L52.5302 14.9972H45.5797L54.7007 5.88791ZM12.2324 14.9972L10.0745 5.59893C10.2501 5.54867 10.4007 5.49842 10.5638 5.42303L19.6973 14.9972H12.2449H12.2324ZM8.45603 5.51097C8.61913 5.57379 8.78222 5.62405 8.95786 5.66174L11.1032 14.9972H4.79257L8.45603 5.51097ZM1.12913 16.1029H3.98963H24.5651V19.1435H1.12913V16.1029ZM63.8091 19.1435H40.3731V16.1029H52.9568H60.9486H63.8091V19.1435Z" fill="#E7AF19"/>
</svg>
