<svg width="43" height="43" viewBox="0 0 43 43" fill="none" xmlns="http://www.w3.org/2000/svg">
<path d="M0 15.0159V14.346C0.214871 13.9162 0.568779 13.6887 1.0238 13.5497C2.51526 13.0947 3.94352 12.5132 5.34651 11.8433C10.2885 9.45444 14.6113 6.19342 18.5801 2.43945C19.4269 1.64315 20.2358 0.808936 21.0574 0C21.3987 0 21.7273 0 22.0686 0C22.2329 0.164315 22.4098 0.32863 22.5741 0.505585C28.1734 6.26925 34.3794 11.1229 42.1653 13.6002C42.4687 13.7014 42.6709 13.8783 42.7847 14.1817C43.0754 14.9906 42.6583 15.6226 41.7988 15.6352C40.636 15.6479 39.4731 15.6479 38.3229 15.6352C37.9185 15.6352 37.7921 15.7616 37.7921 16.1661C37.7921 24.1922 37.7921 32.2184 37.7921 40.2446C37.7921 40.6617 37.9438 40.7754 38.3356 40.7628C39.5237 40.7501 40.7118 40.7501 41.8999 40.7628C42.7594 40.7628 43.0122 41.0788 42.9996 42.0899C42.9996 42.7346 42.6709 43 41.8873 43C28.3251 43 14.7629 43 1.20075 43C0.669894 43 0.278069 42.8357 0.0126398 42.368V41.4453C0.227511 40.9397 0.631974 40.7501 1.15019 40.7501C2.23719 40.7501 3.32419 40.7501 4.42382 40.7501C5.03052 40.7501 5.04316 40.7501 5.04316 40.1434C5.04316 39.1955 5.04316 38.2475 5.04316 37.2995C5.04316 30.3098 5.04316 23.3327 5.04316 16.343C5.04316 15.8712 4.80301 15.6352 4.32271 15.6352C3.28627 15.6352 2.24983 15.6352 1.22603 15.6352C0.707813 15.6352 0.303348 15.4709 0.0252796 15.0159H0ZM31.0932 28.1864C31.0932 24.2049 31.0932 20.2234 31.0932 16.2293C31.0932 15.8332 30.8909 15.631 30.4865 15.6226C24.4701 15.6226 18.4663 15.6226 12.4499 15.6226C11.8685 15.6226 11.8685 15.6226 11.8685 16.204C11.8685 24.1922 11.8685 32.1678 11.8685 40.1561C11.8685 40.7375 11.8685 40.7375 12.4625 40.7375C18.4789 40.7375 24.4827 40.7375 30.4991 40.7375C31.1058 40.7375 31.1058 40.7375 31.1058 40.1308C31.1058 36.1493 31.1058 32.1678 31.1058 28.1737L31.0932 28.1864ZM9.61866 28.3128C9.61866 27.9083 9.61866 27.5038 9.61866 27.0994C9.61866 23.5223 9.61866 19.9453 9.61866 16.3683C9.61866 15.7995 9.60602 15.7869 9.0246 15.7869C8.68333 15.7869 8.35471 15.7869 8.01344 15.7869C7.54999 15.7869 7.31827 16.0186 7.31827 16.4821C7.31827 24.3566 7.31827 32.2184 7.31827 40.0929C7.31827 40.1814 7.31827 40.2572 7.31827 40.3457C7.29299 40.6617 7.44466 40.7628 7.74801 40.7628C8.16511 40.7501 8.58222 40.7628 9.01196 40.7628C9.41642 40.7628 9.61866 40.5606 9.61866 40.1561C9.61866 36.2125 9.61866 32.269 9.61866 28.338V28.3128ZM35.6307 28.3128C35.6307 26.8339 35.6307 25.3551 35.6307 23.8636C35.6307 21.3736 35.6307 18.8836 35.6307 16.4062C35.6307 15.7869 35.6307 15.7869 34.9861 15.7743C34.6449 15.7743 34.3162 15.7743 33.975 15.7743C33.5452 15.7743 33.3303 15.9933 33.3303 16.4315C33.3303 24.3186 33.3303 32.1931 33.3303 40.0802C33.3303 40.1561 33.3303 40.2193 33.3303 40.2951C33.2924 40.649 33.4694 40.7628 33.798 40.7501C34.2025 40.7375 34.6069 40.7501 35.0114 40.7501C35.6181 40.7501 35.6181 40.7501 35.6181 40.1434C35.6181 36.1999 35.6181 32.2563 35.6181 28.3254L35.6307 28.3128Z" fill="#E7AF19"/>
</svg>
