<?xml version="1.0" encoding="UTF-8"?>
<svg id="Capa_2" data-name="Capa 2" xmlns="http://www.w3.org/2000/svg" viewBox="0 0 48.44 64.42">
  <defs>
    <style>
      .cls-1 {
        fill: #6e5e41;
      }

      .cls-1, .cls-2, .cls-3 {
        stroke-width: 0px;
      }

      .cls-2 {
        fill: #163756;
      }

      .cls-3 {
        fill: #f5f4f5;
      }
    </style>
  </defs>
  <g id="Capa_1-2" data-name="Capa 1">
    <g>
      <path class="cls-2" d="m27.21,62.97c6.47-8.1,21.23-27.73,21.23-38.75C48.44,10.85,37.59,0,24.22,0S0,10.85,0,24.22c0,11.03,14.76,30.65,21.23,38.75,1.55,1.93,4.43,1.93,5.98,0h0Z"/>
      <circle class="cls-3" cx="24.22" cy="24.22" r="19.39"/>
      <path class="cls-1" d="m14.34,20.33v-.31c.1-.19.26-.3.47-.36.68-.21,1.34-.48,1.99-.79,2.27-1.1,4.26-2.59,6.08-4.33.39-.37.76-.75,1.14-1.12.15,0,.31,0,.46,0,.08.08.16.15.23.23,2.57,2.65,5.43,4.88,9.01,6.02.14.04.23.13.28.27.14.37-.06.66-.46.67-.53,0-1.07,0-1.6,0-.19,0-.24.06-.24.24,0,3.69,0,7.38,0,11.07,0,.19.07.24.25.24.55,0,1.09,0,1.64,0,.4,0,.51.15.51.61,0,.3-.15.42-.51.42-6.24,0-12.47,0-18.71,0-.24,0-.42-.07-.54-.29v-.42c.1-.23.28-.32.52-.32.5,0,1,0,1.5,0,.28,0,.28,0,.28-.28,0-.44,0-.87,0-1.31,0-3.21,0-6.42,0-9.63q0-.33-.33-.33c-.48,0-.95,0-1.43,0-.24,0-.43-.08-.55-.28Zm14.3,6.06c0-1.83,0-3.66,0-5.5q0-.28-.28-.28c-2.76,0-5.53,0-8.29,0-.27,0-.27,0-.27.27,0,3.67,0,7.34,0,11.01,0,.27,0,.27.27.27,2.76,0,5.53,0,8.29,0,.28,0,.28,0,.28-.28,0-1.83,0-3.66,0-5.5Zm-9.87.06c0-.19,0-.37,0-.56,0-1.64,0-3.29,0-4.93,0-.26,0-.27-.27-.27-.15,0-.31,0-.46,0q-.32,0-.32.32c0,3.62,0,7.24,0,10.85,0,.04,0,.08,0,.12-.01.14.06.19.2.19.19,0,.39,0,.58,0q.28,0,.28-.28c0-1.81,0-3.62,0-5.44Zm11.96,0c0-.68,0-1.36,0-2.04,0-1.14,0-2.29,0-3.43,0-.28,0-.29-.29-.29-.15,0-.31,0-.46,0q-.3,0-.3.3c0,3.62,0,7.25,0,10.87,0,.03,0,.06,0,.1-.02.16.06.22.22.21.19,0,.37,0,.56,0,.28,0,.28,0,.28-.28,0-1.81,0-3.62,0-5.44Z"/>
    </g>
  </g>
</svg>