<?xml version="1.0" encoding="UTF-8"?>
<svg id="Capa_2" data-name="Capa 2" xmlns="http://www.w3.org/2000/svg" viewBox="0 0 48.44 64.42">
  <defs>
    <style>
      .cls-1 {
        fill: #6e5e41;
      }

      .cls-1, .cls-2, .cls-3 {
        stroke-width: 0px;
      }

      .cls-2 {
        fill: #163756;
      }

      .cls-3 {
        fill: #f5f4f5;
      }
    </style>
  </defs>
  <g id="Capa_1-2" data-name="Capa 1">
    <g>
      <path class="cls-2" d="m27.21,62.97c6.47-8.1,21.23-27.73,21.23-38.75C48.44,10.85,37.59,0,24.22,0S0,10.85,0,24.22c0,11.03,14.76,30.65,21.23,38.75,1.55,1.93,4.43,1.93,5.98,0h0Z"/>
      <circle class="cls-3" cx="24.22" cy="24.22" r="19.39"/>
      <g>
        <path class="cls-1" d="m15.39,31.23c1.54-1.92,2.46-4.36,2.46-7.01s-.92-5.09-2.46-7.01c-1.53,1.93-2.45,4.36-2.45,7.01s.92,5.09,2.45,7.01Z"/>
        <path class="cls-1" d="m33.05,31.23c1.53-1.93,2.45-4.36,2.45-7.01s-.92-5.09-2.45-7.01c-1.54,1.92-2.46,4.36-2.46,7.01s.92,5.09,2.46,7.01Z"/>
        <path class="cls-1" d="m31.87,15.94c-2.01-1.86-4.7-3-7.65-3s-5.64,1.14-7.65,3c1.87,2.25,3,5.14,3,8.28s-1.13,6.04-3,8.28c2.01,1.86,4.7,3,7.65,3s5.64-1.14,7.65-3c-1.87-2.25-3-5.14-3-8.28s1.13-6.04,3-8.28Z"/>
      </g>
    </g>
  </g>
</svg>