<?xml version="1.0" encoding="UTF-8"?>
<svg id="Capa_2" data-name="Capa 2" xmlns="http://www.w3.org/2000/svg" viewBox="0 0 48.44 64.42">
  <defs>
    <style>
      .cls-1 {
        fill: #6e5e41;
      }

      .cls-1, .cls-2, .cls-3 {
        stroke-width: 0px;
      }

      .cls-2 {
        fill: #163756;
      }

      .cls-3 {
        fill: #f5f4f5;
      }
    </style>
  </defs>
  <g id="Capa_1-2" data-name="Capa 1">
    <g>
      <path class="cls-2" d="m27.21,62.97c6.47-8.1,21.23-27.73,21.23-38.75C48.44,10.85,37.59,0,24.22,0S0,10.85,0,24.22c0,11.03,14.76,30.65,21.23,38.75,1.55,1.93,4.43,1.93,5.98,0h0Z"/>
      <circle class="cls-3" cx="24.22" cy="24.22" r="19.39"/>
      <path class="cls-1" d="m17.13,18.35c0-2.04,1.66-3.7,3.7-3.7,1.87,0,3.44,1.39,3.67,3.24l.04.32c.08.68-.39,1.29-1.07,1.38s-1.29-.39-1.38-1.07l-.04-.32c-.08-.61-.6-1.07-1.22-1.07-.68,0-1.22.55-1.22,1.22v3.72h7.42v-3.72c0-2.04,1.66-3.7,3.7-3.7,1.87,0,3.44,1.39,3.67,3.24l.04.32c.08.68-.39,1.29-1.07,1.38s-1.29-.39-1.38-1.07l-.04-.32c-.08-.61-.6-1.07-1.22-1.07-.68,0-1.22.55-1.22,1.22v9.01c-.06.04-.13.08-.19.12-.7.48-1.55.78-2.29.78h0v-3.72h-7.42v3.73c-.73,0-1.59-.31-2.28-.78-.06-.04-.12-.08-.19-.12v-9.02Zm6.9,10.13c.87.6,1.93,1.01,2.99,1.01s2.14-.42,2.99-1.01h0c.46-.33,1.09-.3,1.51.07.56.46,1.26.81,1.95.97.66.15,1.08.82.92,1.48s-.82,1.08-1.48.92c-.95-.22-1.73-.64-2.25-.97-1.12.6-2.38,1-3.65,1s-2.34-.38-3.11-.73c-.22-.1-.43-.2-.6-.3-.17.09-.37.2-.6.3-.76.35-1.87.73-3.11.73s-2.53-.4-3.65-1c-.52.32-1.3.75-2.25.97-.66.15-1.33-.26-1.48-.92s.26-1.33.92-1.48c.7-.16,1.4-.51,1.95-.97.43-.36,1.05-.39,1.51-.07h0c.85.59,1.95,1,2.99,1s2.12-.41,2.99-1.01c.43-.31,1-.31,1.43,0Z"/>
    </g>
  </g>
</svg>