<?xml version="1.0" encoding="UTF-8"?>
<svg id="Capa_2" data-name="Capa 2" xmlns="http://www.w3.org/2000/svg" viewBox="0 0 48.44 64.42">
  <defs>
    <style>
      .cls-1 {
        fill: #6e5e41;
      }

      .cls-1, .cls-2, .cls-3 {
        stroke-width: 0px;
      }

      .cls-2 {
        fill: #163756;
      }

      .cls-3 {
        fill: #f5f4f5;
      }
    </style>
  </defs>
  <g id="Capa_1-2" data-name="Capa 1">
    <g>
      <path class="cls-2" d="m27.21,62.97c6.47-8.1,21.23-27.73,21.23-38.75C48.44,10.85,37.59,0,24.22,0S0,10.85,0,24.22c0,11.03,14.76,30.65,21.23,38.75,1.55,1.93,4.43,1.93,5.98,0h0Z"/>
      <circle class="cls-3" cx="24.22" cy="24.22" r="19.39"/>
      <path class="cls-1" d="m18.05,15.59v3.7h4.93v-3.7c0-.68-.55-1.23-1.23-1.23h-2.47c-.68,0-1.23.55-1.23,1.23Zm0,4.93c-2.04,0-3.7,1.66-3.7,3.7v8.02c0,1.02.83,1.85,1.85,1.85h8.64c1.02,0,1.85-.83,1.85-1.85v-8.02c0-2.04-1.66-3.7-3.7-3.7h-4.93Zm2.47,3.7c1.7,0,3.08,1.38,3.08,3.08s-1.38,3.08-3.08,3.08-3.08-1.38-3.08-3.08,1.38-3.08,3.08-3.08Zm8.64-8.02c0-.05-.04-.12-.08-.14l-1.15-.48-.48-1.15s-.08-.08-.14-.08-.12.04-.14.08l-.48,1.15-1.15.48s-.08.08-.08.14.04.12.08.14l1.15.48.48,1.15s.08.08.14.08.12-.04.14-.08l.48-1.15,1.15-.48s.08-.08.08-.14Zm2.95,1.77s.08.08.14.08.12-.04.14-.08l.48-1.15,1.15-.48s.08-.08.08-.14-.04-.12-.08-.14l-1.15-.48-.48-1.15s-.08-.08-.14-.08-.12.04-.14.08l-.48,1.15-1.15.48s-.08.08-.08.14.04.12.08.14l1.15.48.48,1.15Zm.28,3.87s-.08-.08-.14-.08-.12.04-.14.08l-.48,1.15-1.15.48s-.08.08-.08.14.04.12.08.14l1.15.48.48,1.15s.08.08.14.08.12-.04.14-.08l.48-1.15,1.15-.48s.08-.08.08-.14-.04-.12-.08-.14l-1.15-.48-.48-1.15h0Zm-.76-1.94c0-.05-.04-.12-.08-.14l-1.15-.48-.48-1.15s-.08-.08-.14-.08-.12.04-.14.08l-.48,1.15-1.15.48s-.08.08-.08.14.04.12.08.14l1.15.48.48,1.15s.08.08.14.08.12-.04.14-.08l.48-1.15,1.15-.48s.08-.08.08-.14Z"/>
    </g>
  </g>
</svg>