<svg width="43" height="43" viewBox="0 0 43 43" fill="none" xmlns="http://www.w3.org/2000/svg">
<path d="M8.06407 2.69224V10.7563H18.8078V2.69224C18.8078 1.20076 17.607 0 16.1155 0H10.7437C9.25221 0 8.05144 1.20076 8.05144 2.69224H8.06407ZM8.06407 13.4359C3.61492 13.4359 0 17.0509 0 21.5V38.968C0 41.1925 1.80747 43 4.03204 43H22.8398C25.0644 43 26.8718 41.1925 26.8718 38.968V21.5C26.8718 17.0509 23.2569 13.4359 18.8078 13.4359H8.06407ZM13.4359 21.5C17.152 21.5 20.1476 24.5082 20.1476 28.2116C20.1476 31.9151 17.1393 34.9233 13.4359 34.9233C9.7325 34.9233 6.72427 31.9151 6.72427 28.2116C6.72427 24.5082 9.7325 21.5 13.4359 21.5ZM32.2437 4.03204C32.2437 3.91828 32.1552 3.77925 32.0541 3.72869L29.5514 2.69224L28.515 0.189594C28.4644 0.0884774 28.3254 0 28.2116 0C28.0979 0 27.9589 0.0884774 27.9083 0.189594L26.8718 2.69224L24.3692 3.72869C24.2681 3.77925 24.1796 3.91828 24.1796 4.03204C24.1796 4.1458 24.2681 4.28483 24.3692 4.33539L26.8718 5.37184L27.9083 7.87449C27.9589 7.9756 28.0979 8.06408 28.2116 8.06408C28.3254 8.06408 28.4644 7.9756 28.515 7.87449L29.5514 5.37184L32.0541 4.33539C32.1552 4.28483 32.2437 4.1458 32.2437 4.03204ZM38.6646 7.87449C38.7152 7.9756 38.8542 8.06408 38.968 8.06408C39.0817 8.06408 39.2208 7.9756 39.2713 7.87449L40.3078 5.37184L42.8104 4.33539C42.9115 4.28483 43 4.1458 43 4.03204C43 3.91828 42.9115 3.77925 42.8104 3.72869L40.3078 2.69224L39.2713 0.189594C39.2208 0.0884774 39.0817 0 38.968 0C38.8542 0 38.7152 0.0884774 38.6646 0.189594L37.6282 2.69224L35.1255 3.72869C35.0244 3.77925 34.9359 3.91828 34.9359 4.03204C34.9359 4.1458 35.0244 4.28483 35.1255 4.33539L37.6282 5.37184L38.6646 7.87449ZM39.2713 16.3051C39.2208 16.204 39.0817 16.1155 38.968 16.1155C38.8542 16.1155 38.7152 16.204 38.6646 16.3051L37.6282 18.8078L35.1255 19.8442C35.0244 19.8948 34.9359 20.0338 34.9359 20.1476C34.9359 20.2613 35.0244 20.4004 35.1255 20.4509L37.6282 21.4874L38.6646 23.99C38.7152 24.0911 38.8542 24.1796 38.968 24.1796C39.0817 24.1796 39.2208 24.0911 39.2713 23.99L40.3078 21.4874L42.8104 20.4509C42.9115 20.4004 43 20.2613 43 20.1476C43 20.0338 42.9115 19.8948 42.8104 19.8442L40.3078 18.8078L39.2713 16.3051ZM37.6282 12.0835C37.6282 11.9697 37.5397 11.8307 37.4386 11.7801L34.9359 10.7437L33.8995 8.24103C33.8489 8.13992 33.7099 8.05144 33.5961 8.05144C33.4824 8.05144 33.3433 8.13992 33.2928 8.24103L32.2563 10.7437L29.7537 11.7801C29.6526 11.8307 29.5641 11.9697 29.5641 12.0835C29.5641 12.1972 29.6526 12.3363 29.7537 12.3868L32.2563 13.4233L33.2928 15.9259C33.3433 16.027 33.4824 16.1155 33.5961 16.1155C33.7099 16.1155 33.8489 16.027 33.8995 15.9259L34.9359 13.4233L37.4386 12.3868C37.5397 12.3363 37.6282 12.1972 37.6282 12.0835Z" fill="#E7AF19"/>
</svg>
