<svg width="43" height="44" viewBox="0 0 43 44" fill="none" xmlns="http://www.w3.org/2000/svg">
<path d="M4.62949 35.2008C7.54016 31.5571 9.28406 26.9333 9.28406 21.9075C9.28406 16.8817 7.54016 12.2705 4.62949 8.61426C1.73135 12.258 0 16.8817 0 21.9075C0 26.9333 1.73135 31.5445 4.62949 35.2008Z" fill="#E7AF19"/>
<path d="M38.0395 35.2008C40.9377 31.5571 42.669 26.9333 42.669 21.9075C42.669 16.8817 40.9377 12.2705 38.0395 8.61426C35.1289 12.258 33.3849 16.8817 33.3849 21.9075C33.3849 26.9333 35.1289 31.5445 38.0395 35.2008Z" fill="#E7AF19"/>
<path d="M35.8064 6.22702C32.0049 2.70895 26.9238 0.547852 21.3282 0.547852C15.7327 0.547852 10.6516 2.69639 6.85013 6.22702C10.3881 10.4864 12.5209 15.9645 12.5209 21.9201C12.5209 27.8757 10.3881 33.3538 6.85013 37.6132C10.6516 41.1312 15.7327 43.2924 21.3282 43.2924C26.9238 43.2924 32.0049 41.1438 35.8064 37.6132C32.2684 33.3538 30.1355 27.8757 30.1355 21.9201C30.1355 15.9645 32.2684 10.4864 35.8064 6.22702Z" fill="#E7AF19"/>
</svg>
