<svg width="300" height="72" viewBox="0 0 300 72" fill="none" xmlns="http://www.w3.org/2000/svg">
<path d="M209.313 71.5343L207.112 68.5267H205.985V71.5343H205.294V64.956H207.176C208.174 64.956 209.108 65.6215 209.108 66.735C209.108 67.5924 208.545 68.2068 207.815 68.4115L210.119 71.5215H209.313V71.5343ZM207.048 65.5576H205.972V67.9252H207.086C207.777 67.9252 208.391 67.4901 208.391 66.735C208.391 65.9799 207.777 65.5448 207.048 65.5448V65.5576Z" fill="#163756"/>
<path d="M211.911 71.5343V64.956H212.602V71.5343H211.911Z" fill="#163756"/>
<path d="M217.35 71.6366H217.158L214.534 64.956H215.264L216.646 68.4883C216.851 69.0258 217.094 69.6657 217.286 70.2545H217.312C217.504 69.6785 217.721 69.0514 217.939 68.4883L219.334 64.956H219.999L217.376 71.6366H217.35Z" fill="#163756"/>
<path d="M221.906 71.5343V64.956H222.597V71.5343H221.906Z" fill="#163756"/>
<path d="M225.195 71.5343V64.956H228.625V65.5576H225.886V67.9252H228.126V68.5267H225.886V70.9455H228.983V71.5471H225.182L225.195 71.5343Z" fill="#163756"/>
<path d="M234.883 71.5343L232.682 68.5267H231.543V71.5343H230.852V64.956H232.733C233.732 64.956 234.666 65.6215 234.666 66.735C234.666 67.5924 234.103 68.2068 233.373 68.4115L235.69 71.5215H234.883V71.5343ZM232.618 65.5576H231.543V67.9252H232.656C233.348 67.9252 233.949 67.4901 233.949 66.735C233.949 65.9799 233.348 65.5448 232.605 65.5448L232.618 65.5576Z" fill="#163756"/>
<path d="M242.153 71.5343L241.398 69.6914H238.608L237.865 71.5343H237.187L239.913 64.8153H240.131L242.857 71.5343H242.153ZM240.374 67.0934C240.246 66.799 240.118 66.4406 240.028 66.0823H240.015C239.913 66.4278 239.785 66.799 239.657 67.0934L238.864 69.1154H241.18L240.399 67.0934H240.374Z" fill="#163756"/>
<path d="M253.889 71.675L250.651 67.9636C250.1 67.3237 249.499 66.607 249.051 66.0695H249.025C249.051 66.6838 249.051 67.3109 249.051 67.8996V71.5343H248.36V64.956H248.846L251.905 68.4499C252.353 68.9618 252.967 69.6785 253.402 70.2161H253.428C253.402 69.6145 253.402 69.013 253.402 68.4627V64.956H254.093V71.675H253.901H253.889Z" fill="#163756"/>
<path d="M260.927 71.5343L260.172 69.6914H257.382L256.64 71.5343H255.962L258.688 64.8153H258.905L261.631 71.5343H260.927ZM259.148 67.0934C259.021 66.799 258.893 66.4406 258.803 66.0823H258.777C258.675 66.4278 258.547 66.799 258.419 67.0934L257.626 69.1154H259.942L259.161 67.0934H259.148Z" fill="#163756"/>
<path d="M265.253 68.4883V71.5343H264.575V68.4883L262.066 64.956H262.834L264.255 66.9653C264.46 67.2597 264.728 67.6436 264.933 67.9636H264.959C265.164 67.6436 265.407 67.2853 265.637 66.9653L267.071 64.956H267.787L265.266 68.4883H265.253Z" fill="#163756"/>
<path d="M273.162 71.5343L272.407 69.6914H269.617L268.875 71.5343H268.197L270.923 64.8153H271.14L273.866 71.5343H273.162ZM271.384 67.0934C271.256 66.799 271.14 66.4406 271.038 66.0823H271.012C270.91 66.4278 270.769 66.799 270.654 67.0934L269.861 69.1154H272.177L271.396 67.0934H271.384Z" fill="#163756"/>
<path d="M279.779 71.5343L277.578 68.5267H276.452V71.5343H275.76V64.956H277.642C278.64 64.956 279.574 65.6215 279.574 66.735C279.574 67.5924 279.024 68.2068 278.282 68.4115L280.598 71.5215H279.792L279.779 71.5343ZM277.527 65.5576H276.452V67.9252H277.565C278.256 67.9252 278.87 67.4901 278.87 66.735C278.87 65.9799 278.269 65.5448 277.527 65.5448V65.5576Z" fill="#163756"/>
<path d="M282.39 71.5343V64.956H283.081V71.5343H282.39Z" fill="#163756"/>
<path d="M287.893 65.5448V71.5215H287.202V65.5448H284.937V64.9433H290.158V65.5448H287.893Z" fill="#163756"/>
<path d="M96.8048 5.16342V26.549C96.8048 33.4216 99.5948 36.6467 105.981 36.6467C112.367 36.6467 115.157 33.4216 115.157 26.549V5.16342H119.291V26.549C119.291 35.8276 114.914 40.4478 105.981 40.4478C97.048 40.4478 92.671 35.8276 92.671 26.549V5.16342H96.8048Z" fill="#163756"/>
<path d="M151.542 39.5391H147.114L142.648 29.0062H129.235L124.769 39.5391H120.34L135.916 3.8196L151.542 39.5391ZM130.438 25.4996H141.393L135.916 12.855L130.438 25.4996Z" fill="#163756"/>
<path d="M154.422 5.16342H161C167.437 5.16342 172.39 5.16342 176.575 8.38854C180.517 11.4217 182.578 16.221 182.578 22.3769C182.578 28.5327 180.517 33.2936 176.575 36.314C172.582 39.3855 168.065 39.5391 162.485 39.5391H154.409V5.16342H154.422ZM161.154 35.6869C167.015 35.6869 171.11 35.6357 173.99 33.2424C176.78 30.9388 178.316 27.1889 178.316 22.3257C178.316 17.4624 176.831 13.8149 173.99 11.4601C171.149 9.05404 167.066 8.96445 161.154 8.96445H158.556V35.6869H161.154Z" fill="#163756"/>
<path d="M186.724 5.16342H194.8C198.063 5.16342 200.572 5.26581 202.683 6.89116C204.654 8.42693 205.896 11.1657 205.896 14.5316C205.896 20.15 202.683 23.1319 196.617 23.1319H195.9L209.018 39.5263H203.822L191.28 23.1319H190.704V39.5263H186.711V5.16342H186.724ZM190.717 20.1116H193.84C199.215 20.1116 201.864 19.3437 201.864 14.5828C201.864 9.57876 199.266 8.61891 193.84 8.61891H190.717V20.1116Z" fill="#163756"/>
<path d="M240.194 39.5391H235.766L231.3 29.0062H217.887L213.421 39.5391H208.993L224.568 3.8196L240.194 39.5391ZM219.09 25.4996H230.046L224.568 12.855L219.09 25.4996Z" fill="#163756"/>
<path d="M243.612 3.8196L268.747 31.2715V5.16339H272.638V40.8829L247.502 13.7253V39.5391H243.612V3.8196Z" fill="#163756"/>
<path d="M286.204 9.05404H276.49V5.16342H300V9.05404H290.337V39.5263H286.204V9.05404Z" fill="#163756"/>
<path d="M82.8932 35.7252C78.8362 39.667 73.397 41.8299 67.8427 41.8299C62.2883 41.8299 56.8491 39.6031 52.8561 35.7252C48.7991 31.7834 46.6362 26.677 46.6362 21.0074C46.6362 15.3379 48.7991 10.1802 52.8561 6.23843C56.8491 2.34781 62.2371 0.184937 67.8427 0.184937C73.4482 0.184937 78.8874 2.34781 82.8932 6.23843C86.9502 10.1802 89.0491 15.3507 89.0491 21.0074C89.0491 26.6642 86.8862 31.8346 82.8932 35.7252ZM79.5657 32.7945C82.7396 29.6205 84.4418 25.5507 84.4418 21.0074C84.4418 16.4641 82.7396 12.2919 79.5657 9.118C76.3918 5.94408 72.322 4.24193 67.8427 4.24193C63.3633 4.24193 59.2295 5.94408 56.1196 9.118C52.9457 12.3431 51.2435 16.4769 51.2435 21.0074C51.2435 25.538 52.9457 29.5565 56.1196 32.7945C59.3447 36.0196 63.3633 37.7217 67.8427 37.7217C72.322 37.7217 76.3406 36.0196 79.5657 32.7945Z" fill="#163756"/>
<path d="M81.7158 43.66V46.8212H53.9568V43.66H81.7158Z" fill="#163756"/>
<path d="M38.7526 31.0923L40.4036 29.4414L24.0732 13.111C24.0988 12.919 24.1244 12.7271 24.1244 12.5351C24.1244 10.7946 22.9854 9.32277 21.424 8.81085V5.75211C22.4223 5.29137 23.1133 4.28032 23.1133 3.1029C23.1133 1.49034 21.8079 0.184937 20.1954 0.184937C18.5828 0.184937 17.2774 1.49034 17.2774 3.1029C17.2774 4.28032 17.9685 5.29137 18.9668 5.75211V8.81085C17.4054 9.32277 16.2664 10.8074 16.2664 12.5351C16.2664 12.7271 16.292 12.9318 16.3176 13.111L0 29.4542L1.65095 31.1051C6.32226 35.7764 12.4269 38.464 18.9796 38.7584V41.2668C17.9813 41.7275 17.2902 42.7386 17.2902 43.916C17.2902 45.5286 18.5956 46.834 20.2082 46.834C21.8207 46.834 23.1261 45.5286 23.1261 43.916C23.1261 42.7386 22.435 41.7275 21.4368 41.2668V38.7584C27.9894 38.464 34.0941 35.7636 38.7654 31.1051L38.7526 31.0923ZM21.424 34.0743V17.0528L33.723 29.3518C30.2163 32.1802 25.9545 33.8183 21.424 34.0743ZM17.7126 11.0889L18.4676 11.2297C18.5956 11.0633 18.7364 10.9225 18.9028 10.7946L18.762 10.0395L19.3379 10.5386C19.5299 10.4618 19.7219 10.3978 19.9394 10.3722L20.1954 9.65552L20.4513 10.3722C20.6561 10.3978 20.8609 10.449 21.0529 10.5258L21.6288 10.0267L21.488 10.7818C21.6544 10.9097 21.8079 11.0505 21.9231 11.2169L22.6782 11.0761L22.1791 11.652C22.2559 11.844 22.3199 12.0488 22.3455 12.2535L23.0622 12.5095L22.3455 12.7655C22.3199 12.983 22.2687 13.175 22.1919 13.367L22.691 13.9429L21.9359 13.8021C21.8079 13.9685 21.6672 14.1093 21.5008 14.2372L21.6416 14.9923L21.0657 14.4932C20.8737 14.57 20.6689 14.6212 20.4641 14.6468L20.2082 15.3635L19.9522 14.6468C19.7347 14.6212 19.5427 14.57 19.3507 14.4932L18.7748 14.9923L18.9156 14.2372C18.7492 14.1093 18.5956 13.9685 18.4804 13.8021L17.7254 13.9429L18.2245 13.367C18.1477 13.175 18.0837 12.9702 18.0581 12.7655L17.3414 12.5095L18.0581 12.2535C18.0837 12.036 18.1349 11.844 18.2245 11.652L17.7254 11.0761L17.7126 11.0889ZM6.6806 29.3518L18.9796 17.0528V34.0743C14.449 33.8183 10.1873 32.1802 6.6806 29.3518Z" fill="#6E5E41"/>
<path d="M17.3287 12.5479L18.0453 12.8038C18.0709 13.0214 18.1221 13.2134 18.2117 13.4054L17.7126 13.9813L18.4677 13.8405C18.5957 14.0069 18.7364 14.1476 18.9028 14.2756L18.762 15.0307L19.338 14.5316C19.5299 14.6084 19.7219 14.6596 19.9395 14.6852L20.1954 15.4019L20.4514 14.6852C20.6562 14.6596 20.8609 14.6084 21.0529 14.5316L21.6288 15.0307L21.488 14.2756C21.6544 14.1476 21.808 14.0069 21.9232 13.8405L22.6783 13.9813L22.1791 13.4054C22.2559 13.2134 22.3199 13.0214 22.3327 12.8038L23.0494 12.5479L22.3327 12.2919C22.3071 12.0872 22.2559 11.8824 22.1663 11.6904L22.6655 11.1145L21.9104 11.2553C21.7824 11.0889 21.6416 10.9481 21.4752 10.8201L21.616 10.0651L21.0401 10.5642C20.8481 10.4874 20.6434 10.4362 20.4386 10.4106L20.1826 9.69391L19.9267 10.4106C19.7091 10.4362 19.5171 10.4874 19.3252 10.577L18.7492 10.0779L18.89 10.8329C18.7236 10.9609 18.5701 11.1017 18.4549 11.2681L17.6998 11.1273L18.1989 11.7032C18.1221 11.8952 18.0581 12.0999 18.0326 12.3047L17.3159 12.5607L17.3287 12.5479Z" fill="white"/>
<path d="M20.1954 13.8661C20.9249 13.8661 21.5136 13.2774 21.5136 12.5479C21.5136 11.8184 20.9249 11.2297 20.1954 11.2297C19.4659 11.2297 18.8772 11.8184 18.8772 12.5479C18.8772 13.2774 19.4659 13.8661 20.1954 13.8661Z" fill="#E7AF19"/>
<path d="M120.34 55.895V46.8339H121.723V54.7176H125.716V55.895H120.34Z" fill="#6E5E41"/>
<path d="M131.884 56.0614C129.773 56.0614 128.198 54.8072 128.198 52.6955V46.8339H129.581V52.5547C129.581 53.9113 130.336 54.8455 131.91 54.8455C133.484 54.8455 134.252 53.9113 134.252 52.5547V46.8339H135.583V52.6955C135.583 54.8072 134.009 56.0614 131.897 56.0614H131.884Z" fill="#6E5E41"/>
<path d="M144.26 55.895L142.788 53.5146C142.558 53.1434 142.302 52.7083 142.097 52.3243H142.072C141.867 52.6955 141.572 53.1818 141.355 53.5146L139.845 55.895H138.386L141.278 51.3005L138.514 46.8212H140.075L141.483 49.0992C141.688 49.4192 141.956 49.8671 142.136 50.2255H142.161C142.34 49.8671 142.596 49.4448 142.814 49.0992L144.234 46.8212H145.693L142.942 51.2109L145.821 55.8822H144.26V55.895Z" fill="#6E5E41"/>
<path d="M152.31 56.0614C150.186 56.0614 148.611 54.8072 148.611 52.6955V46.8339H149.994V52.5547C149.994 53.9113 150.749 54.8455 152.323 54.8455C153.897 54.8455 154.665 53.9113 154.665 52.5547V46.8339H155.996V52.6955C155.996 54.8072 154.422 56.0614 152.31 56.0614Z" fill="#6E5E41"/>
<path d="M165.185 55.895L162.331 51.9148H161.051V55.895H159.682V46.8339H162.549C163.828 46.8339 165.275 47.653 165.275 49.3808C165.275 50.5838 164.558 51.3517 163.688 51.71L166.785 55.895H165.185ZM162.318 47.9986H161.051V50.7502H162.318C163.124 50.7502 163.88 50.3278 163.88 49.368C163.88 48.4081 163.124 47.9858 162.318 47.9858V47.9986Z" fill="#6E5E41"/>
<path d="M172.544 51.71V55.8822H171.187V51.71L167.719 46.8212H169.229L171.046 49.3808C171.315 49.7647 171.648 50.2639 171.904 50.6606H171.93C172.186 50.2639 172.557 49.7391 172.8 49.3808L174.617 46.8212H176.025L172.544 51.71Z" fill="#6E5E41"/>
<path d="M188.35 56.0614C185.931 56.0614 183.55 54.2824 183.55 51.3389C183.55 48.3953 185.931 46.642 188.35 46.642C190.768 46.642 193.149 48.4337 193.149 51.3389C193.149 54.244 190.768 56.0614 188.35 56.0614ZM188.35 47.8322C186.673 47.8322 184.945 49.0992 184.945 51.3389C184.945 53.5785 186.673 54.8583 188.35 54.8583C190.026 54.8583 191.754 53.5785 191.754 51.3389C191.754 49.0992 189.988 47.8322 188.35 47.8322Z" fill="#6E5E41"/>
<path d="M203.272 48.4337C202.837 48.1521 201.941 47.8322 200.994 47.8322C199.215 47.8322 197.347 48.984 197.347 51.3517C197.347 53.7193 199.177 54.8583 200.994 54.8583C202.069 54.8583 202.927 54.628 203.49 54.2952L203.208 55.6134C202.645 55.9078 202.005 56.0486 200.828 56.0486C198.537 56.0486 195.939 54.4488 195.939 51.3517C195.939 48.2545 198.562 46.642 200.828 46.642C202.082 46.642 202.939 46.9235 203.502 47.2435L203.259 48.4337H203.272Z" fill="#6E5E41"/>
<path d="M206.625 55.895V46.8339H211.514V48.0114H208.007V50.7502H210.951V51.9276H208.007V54.7176H212.013V55.895H206.625Z" fill="#6E5E41"/>
<path d="M221.369 55.895L220.383 53.5529H216.864L215.891 55.895H214.547L218.412 46.7059H218.911L222.776 55.895H221.381H221.369ZM219.027 50.2382C218.899 49.9439 218.758 49.5087 218.643 49.1376H218.617C218.515 49.5215 218.361 49.9439 218.233 50.2382L217.337 52.4523H219.922L219.027 50.2382Z" fill="#6E5E41"/>
<path d="M233.309 56.087L229.06 51.4413C228.382 50.699 227.601 49.7903 226.974 49.0608H226.949C226.974 49.8927 226.974 50.6606 226.974 51.3517V55.895H225.592V46.8339H226.539L230.43 51.0957C230.954 51.6716 231.773 52.5803 232.336 53.2714H232.362C232.337 52.5675 232.336 51.7868 232.336 51.1213V46.8339H233.719V56.0998H233.309V56.087Z" fill="#6E5E41"/>
<path d="M242.383 55.895V46.8339H243.765V54.7176H247.758V55.895H242.396H242.383Z" fill="#6E5E41"/>
<path d="M250.587 55.895V46.8339H251.969V55.895H250.587Z" fill="#6E5E41"/>
<path d="M258.854 56.023H258.419L254.81 46.8339H256.256L257.933 51.1469C258.176 51.774 258.445 52.5419 258.688 53.3098H258.713C258.957 52.5547 259.213 51.7996 259.469 51.1469L261.145 46.8339H262.45L258.854 56.023Z" fill="#6E5E41"/>
<path d="M265.304 55.895V46.8339H266.687V55.895H265.304Z" fill="#6E5E41"/>
<path d="M278.192 56.087L273.943 51.4413C273.265 50.699 272.484 49.7903 271.857 49.0608H271.831C271.857 49.8927 271.857 50.6606 271.857 51.3517V55.895H270.475V46.8339H271.422L275.313 51.0957C275.837 51.6716 276.669 52.5803 277.219 53.2714H277.245C277.219 52.5675 277.219 51.7868 277.219 51.1213V46.8339H278.589V56.0998H278.179L278.192 56.087Z" fill="#6E5E41"/>
<path d="M286.856 56.0614C284.412 56.0614 281.891 54.4232 281.891 51.3645C281.891 48.3057 284.514 46.6548 286.78 46.6548C288.034 46.6548 289.045 46.9491 289.71 47.3843L289.454 48.5745C288.789 48.1522 287.893 47.845 286.946 47.845C285.167 47.845 283.299 49.0096 283.299 51.3773C283.299 53.7449 285.116 54.8712 286.959 54.8712C287.803 54.8712 288.456 54.7048 288.878 54.3976V52.5163H286.792V51.4029H290.184V55.0759C289.314 55.767 288.226 56.0614 286.869 56.0614H286.856Z" fill="#6E5E41"/>
</svg>
