<svg width="34" height="30" viewBox="0 0 34 30" fill="none" xmlns="http://www.w3.org/2000/svg">
<path d="M33.59 27.8013L26.9173 12.0838C26.794 11.7935 26.585 11.5454 26.3166 11.3707C26.0482 11.1961 25.7325 11.1029 25.4096 11.1029C25.0867 11.1029 24.771 11.1961 24.5026 11.3707C24.2342 11.5454 24.0252 11.7935 23.902 12.0838L17.2292 27.8013C17.1463 27.9941 17.1033 28.2009 17.1027 28.4098C17.1022 28.6188 17.1441 28.8258 17.2261 29.0189C17.3081 29.2121 17.4285 29.3876 17.5804 29.5354C17.7323 29.6831 17.9128 29.8002 18.1114 29.88C18.31 29.9597 18.5229 30.0005 18.7378 30C18.9526 29.9995 19.1653 29.9577 19.3635 29.877C19.5617 29.7964 19.7416 29.6784 19.8928 29.5299C20.044 29.3815 20.1635 29.2054 20.2446 29.0119L21.6036 25.8114H29.2157L30.5747 29.0119C30.6979 29.3023 30.9069 29.5505 31.1754 29.7252C31.4439 29.8999 31.7597 29.9932 32.0827 29.9931C32.3507 29.993 32.6146 29.9286 32.8509 29.8057C33.0873 29.6828 33.2888 29.5051 33.4378 29.2884C33.5867 29.0717 33.6785 28.8227 33.7049 28.5633C33.7313 28.3039 33.6916 28.0422 33.5892 27.8013H33.59ZM22.9507 22.6391L25.41 16.8459L27.8692 22.6391H22.9507ZM17.984 21.2634C18.2374 20.923 18.3416 20.4987 18.2736 20.0838C18.2056 19.6688 17.9711 19.297 17.6215 19.05C17.6066 19.0392 16.5093 18.2475 14.916 16.546C17.8557 12.6757 19.5209 8.27263 20.2001 6.2005H22.5926C23.0252 6.2005 23.4401 6.03339 23.746 5.73592C24.0519 5.43846 24.2237 5.03501 24.2237 4.61433C24.2237 4.19365 24.0519 3.7902 23.746 3.49273C23.4401 3.19527 23.0252 3.02815 22.5926 3.02815H13.9922V1.58618C13.9922 1.1655 13.8204 0.762046 13.5145 0.46458C13.2086 0.167114 12.7937 0 12.3611 0C11.9285 0 11.5137 0.167114 11.2078 0.46458C10.9019 0.762046 10.73 1.1655 10.73 1.58618V3.02815H2.12964C1.69705 3.02815 1.28217 3.19527 0.976275 3.49273C0.670383 3.7902 0.498535 4.19365 0.498535 4.61433C0.498535 5.03501 0.670383 5.43846 0.976275 5.73592C1.28217 6.03339 1.69705 6.2005 2.12964 6.2005H16.754C16.0482 8.14357 14.7485 11.2114 12.7659 14.0131C10.4372 11.0081 9.57194 9.06355 9.56526 9.04769C9.39478 8.66455 9.07584 8.36221 8.67762 8.20626C8.2794 8.05031 7.83401 8.05331 7.43805 8.21461C7.04209 8.37592 6.72749 8.68253 6.56249 9.06793C6.39748 9.45334 6.39537 9.88646 6.55661 10.2734C6.59962 10.3729 7.63537 12.7413 10.4757 16.3246C10.5439 16.4104 10.6114 16.4941 10.6789 16.5777C7.76956 19.7753 4.91513 21.7587 3.72071 22.399C3.34091 22.6004 3.05896 22.9403 2.93688 23.3439C2.8148 23.7475 2.8626 24.1818 3.06975 24.5511C3.27691 24.9205 3.62645 25.1946 4.04149 25.3134C4.45653 25.4321 4.90307 25.3856 5.28287 25.1841C5.44301 25.0991 8.88613 23.2454 12.8178 19.0132C14.4875 20.7493 15.6352 21.5684 15.7042 21.616C15.8776 21.7385 16.0743 21.8266 16.2828 21.8752C16.4913 21.9237 16.7077 21.9318 16.9194 21.899C17.1312 21.8662 17.3342 21.7931 17.5169 21.6839C17.6995 21.5747 17.8583 21.4316 17.984 21.2627V21.2634Z" fill="#163756"/>
</svg>
