<svg width="344" height="222" viewBox="0 0 344 222" fill="none" xmlns="http://www.w3.org/2000/svg">
<path d="M107.981 212.919C107.981 211.074 106.459 209.993 104.819 209.993H101.744V220.781H102.879V215.844H104.74L108.344 220.781H109.661L105.876 215.671C107.074 215.332 107.989 214.315 107.989 212.911L107.981 212.919ZM104.701 214.867H102.871V210.979H104.63C105.829 210.979 106.83 211.704 106.83 212.919C106.83 214.133 105.829 214.867 104.701 214.867Z" fill="white"/>
<path d="M113.738 210.001H112.602V220.789H113.738V210.001Z" fill="white"/>
<path d="M122.46 215.781C122.105 216.688 121.734 217.721 121.427 218.675H121.395C121.072 217.713 120.685 216.665 120.346 215.781L118.083 210.001H116.884L121.198 220.954H121.521L125.835 210.001H124.755L122.468 215.781H122.46Z" fill="white"/>
<path d="M130.125 210.001H128.989V220.789H130.125V210.001Z" fill="white"/>
<path d="M135.519 215.852H139.202V214.867H135.519V210.979H140.014V210.001H134.383V220.789H140.605V219.803H135.519V215.852Z" fill="white"/>
<path d="M149.918 212.919C149.918 211.074 148.396 209.993 146.756 209.993H143.681V220.781H144.816V215.844H146.677L150.281 220.781H151.598L147.813 215.671C149.012 215.332 149.926 214.315 149.926 212.911L149.918 212.919ZM146.638 214.867H144.808V210.979H146.567C147.766 210.979 148.767 211.704 148.767 212.919C148.767 214.133 147.766 214.867 146.638 214.867Z" fill="white"/>
<path d="M158.514 209.772L154.051 220.781H155.163L156.377 217.752H160.943L162.173 220.781H163.324L158.861 209.772H158.506H158.514ZM160.556 216.822H156.771L158.072 213.51C158.277 213.021 158.498 212.43 158.664 211.854H158.695C158.869 212.43 159.066 213.021 159.271 213.51L160.556 216.822Z" fill="white"/>
<path d="M180.595 215.75C180.595 216.657 180.595 217.642 180.626 218.605L180.595 218.62C179.885 217.737 178.883 216.57 178.142 215.726L173.134 209.993H172.338V220.781H173.474V214.827C173.474 213.849 173.474 212.832 173.442 211.831L173.474 211.815C174.215 212.714 175.201 213.881 176.107 214.93L181.423 221.018H181.722V209.993H180.587V215.742L180.595 215.75Z" fill="white"/>
<path d="M189.308 209.772L184.845 220.781H185.965L187.179 217.752H191.745L192.983 220.781H194.135L189.671 209.772H189.316H189.308ZM191.359 216.822H187.574L188.875 213.51C189.08 213.021 189.301 212.43 189.466 211.854H189.498C189.663 212.43 189.868 213.021 190.073 213.51L191.359 216.822Z" fill="white"/>
<path d="M200.68 213.297C200.309 213.818 199.899 214.417 199.568 214.938H199.536C199.197 214.417 198.756 213.786 198.417 213.297L196.082 210.001H194.829L198.937 215.797V220.781H200.057V215.797L204.197 210.001H203.03L200.68 213.297Z" fill="white"/>
<path d="M209.354 209.772L204.891 220.781H206.011L207.225 217.752H211.791L213.029 220.781H214.18L209.717 209.772H209.362H209.354ZM211.397 216.822H207.612L208.913 213.51C209.118 213.021 209.331 212.43 209.504 211.854H209.536C209.701 212.43 209.906 213.021 210.111 213.51L211.397 216.822Z" fill="white"/>
<path d="M223.533 212.919C223.533 211.074 222.011 209.993 220.371 209.993H217.295V220.781H218.431V215.844H220.292L223.896 220.781H225.213L221.428 215.671C222.626 215.332 223.541 214.315 223.541 212.911L223.533 212.919ZM220.253 214.867H218.423V210.979H220.182C221.38 210.979 222.382 211.704 222.382 212.919C222.382 214.133 221.38 214.867 220.253 214.867Z" fill="white"/>
<path d="M229.29 210.001H228.154V220.789H229.29V210.001Z" fill="white"/>
<path d="M232.357 210.979H236.064V220.789H237.192V210.979H240.914V210.001H232.357V210.979Z" fill="white"/>
<path d="M98.3842 113.352H92.7852V142.317C92.7852 151.622 89.0079 155.983 80.3571 155.983C71.7063 155.983 67.9289 151.622 67.9289 142.317V113.352H62.33V142.317C62.33 154.879 68.2523 161.125 80.3571 161.125C92.4619 161.125 98.3842 154.879 98.3842 142.317V113.352Z" fill="white"/>
<path d="M111.83 145.636H129.991L136.039 159.886H142.025L120.875 111.538L99.7879 159.886H105.773L111.822 145.636H111.83ZM120.875 123.769L128.295 140.881H113.454L120.875 123.769Z" fill="white"/>
<path d="M175.926 117.713C170.264 113.352 163.561 113.352 154.839 113.352H145.92V159.887H156.85C164.397 159.887 170.516 159.689 175.918 155.526C181.257 151.425 184.056 144.982 184.056 136.647C184.056 128.312 181.257 121.814 175.918 117.713H175.926ZM172.409 151.362C168.505 154.619 162.97 154.682 155.036 154.682H151.527V118.502H155.036C163.041 118.502 168.576 118.628 172.409 121.885C176.249 125.07 178.268 130.023 178.268 136.592C178.268 143.161 176.186 148.239 172.409 151.37V151.362Z" fill="white"/>
<path d="M262.048 159.886L240.898 111.538L219.827 159.854L202.084 137.695H203.061C211.263 137.695 215.624 133.657 215.624 126.048C215.624 121.49 213.928 117.783 211.263 115.701C208.4 113.485 205.017 113.359 200.593 113.359H189.663V159.894H195.065V137.703H195.846L212.832 159.894H225.812L231.861 145.644H250.014L256.062 159.894H262.048V159.886ZM195.057 133.594V118.043H199.284C206.642 118.043 210.151 119.345 210.151 126.111C210.151 132.877 206.571 133.594 199.284 133.594H195.057ZM233.477 140.881L240.898 123.769L248.318 140.881H233.485H233.477Z" fill="white"/>
<path d="M305.98 113.352H300.712V148.696L266.677 111.53V159.886H271.945V124.936L305.98 161.708V113.352Z" fill="white"/>
<path d="M311.193 113.352V118.628H324.338V159.887H329.937V118.628H343.02V113.352H311.193Z" fill="white"/>
<path d="M49.0817 154.737C54.4914 149.477 57.425 142.482 57.425 134.817C57.425 127.152 54.5703 120.165 49.0817 114.826C43.672 109.566 36.3066 106.633 28.7125 106.633C21.1184 106.633 13.8318 109.566 8.41423 114.826C2.92566 120.165 0 127.152 0 134.817C0 142.482 2.92566 149.398 8.41423 154.737C13.8239 159.997 21.1184 163.001 28.7125 163.001C36.3066 163.001 43.5931 160.068 49.0817 154.737ZM6.24562 134.817C6.24562 128.682 8.54829 123.091 12.8382 118.722C17.0572 114.432 22.6561 112.129 28.7125 112.129C34.7688 112.129 40.289 114.432 44.5868 118.722C48.8767 123.012 51.1794 128.69 51.1794 134.817C51.1794 140.944 48.8767 146.472 44.5868 150.77C40.218 155.139 34.6979 157.442 28.7125 157.442C22.7271 157.442 17.2149 155.139 12.8382 150.77C8.54829 146.393 6.24562 140.952 6.24562 134.817Z" fill="white"/>
<path d="M47.5046 165.477H9.92047V169.759H47.5046V165.477Z" fill="white"/>
<path d="M132.617 64.7667C142.395 74.5452 155.21 80.1836 168.939 80.8145V86.0665C166.842 87.0364 165.391 89.1578 165.391 91.6103C165.391 94.9933 168.127 97.7297 171.51 97.7297C174.893 97.7297 177.629 94.9854 177.629 91.6103C177.629 89.1499 176.171 87.0364 174.081 86.0665V80.8145C187.802 80.1915 200.625 74.5531 210.403 64.7667L213.857 61.3127L179.64 27.0959C179.696 26.7016 179.743 26.2915 179.743 25.8815C179.743 22.2382 177.361 19.1548 174.081 18.0665V11.6711C176.178 10.7011 177.629 8.57984 177.629 6.11944C177.629 2.7364 174.893 0 171.51 0C168.127 0 165.391 2.7364 165.391 6.11944C165.391 8.57984 166.849 10.6933 168.939 11.6711V18.0665C165.659 19.1469 163.277 22.2382 163.277 25.8815C163.277 26.2994 163.317 26.7016 163.38 27.0959L129.163 61.3127L132.617 64.7667ZM199.852 61.1313C192.502 67.0615 183.56 70.4998 174.073 71.0281V35.3603L199.852 61.1392V61.1313ZM166.526 25.29C166.589 24.8011 166.707 24.3358 166.897 23.9021L165.753 22.5615L167.496 22.8848C167.78 22.4984 168.127 22.1593 168.505 21.8754L168.182 20.1327L169.523 21.2761C169.956 21.0868 170.422 20.9607 170.911 20.9055L171.502 19.2415L172.094 20.9055C172.582 20.9607 173.048 21.0868 173.481 21.2761L174.83 20.1327L174.507 21.8754C174.893 22.1593 175.232 22.4984 175.516 22.8848L177.259 22.5615L176.115 23.9021C176.305 24.3358 176.431 24.8011 176.486 25.29L178.15 25.8815L176.486 26.4729C176.431 26.9618 176.305 27.4271 176.115 27.8608L177.259 29.2093L175.516 28.886C175.224 29.2645 174.885 29.6115 174.507 29.8954L174.83 31.6381L173.489 30.4947C173.056 30.6761 172.59 30.8022 172.101 30.8653L171.51 32.5293L170.919 30.8653C170.43 30.8101 169.964 30.684 169.531 30.4947L168.19 31.6381L168.513 29.8954C168.135 29.6115 167.788 29.2724 167.504 28.886L165.761 29.2093L166.905 27.8608C166.715 27.4271 166.589 26.9618 166.534 26.4729L164.87 25.8815L166.534 25.29H166.526ZM168.939 35.3603V71.0281C159.452 70.4998 150.51 67.0694 143.16 61.1313L168.939 35.3524V35.3603Z" fill="white"/>
<path d="M171.51 28.6337C173.024 28.6337 174.262 27.4035 174.262 25.8894C174.262 24.3753 173.024 23.1372 171.51 23.1372C169.996 23.1372 168.766 24.3753 168.766 25.8894C168.766 27.4035 169.996 28.6337 171.51 28.6337Z" fill="white"/>
<path d="M36.5274 179.75H34.3036V194.395H42.9781V192.486H36.5274V179.75Z" fill="white"/>
<path d="M56.7547 189.001C56.7547 191.177 55.5166 192.691 52.9694 192.691C50.4223 192.691 49.2079 191.177 49.2079 189.001V179.75H46.9841V189.229C46.9841 192.652 49.5312 194.671 52.9537 194.671C56.3762 194.671 58.9154 192.652 58.9154 189.229V179.75H56.7626V189.001H56.7547Z" fill="white"/>
<path d="M75.255 179.75H72.8892L70.5944 183.417C70.2474 183.969 69.8374 184.656 69.5377 185.231H69.4904C69.1907 184.656 68.757 183.946 68.4337 183.417L66.1625 179.75H63.6391L68.1104 186.974L63.4261 194.387H65.7919L68.2208 190.53C68.5677 189.978 69.0488 189.198 69.3642 188.598H69.4115C69.7585 189.221 70.1686 189.931 70.5313 190.53L72.9207 194.387H75.4442L70.7837 186.84L75.2313 179.75H75.255Z" fill="white"/>
<path d="M89.7492 189.001C89.7492 191.177 88.5111 192.691 85.964 192.691C83.4168 192.691 82.2024 191.177 82.2024 189.001V179.75H79.9786V189.229C79.9786 192.652 82.5257 194.671 85.9403 194.671C89.3549 194.671 91.9099 192.652 91.9099 189.229V179.75H89.7492V189.001Z" fill="white"/>
<path d="M106.759 194.395H109.353L104.354 187.629C105.773 187.053 106.925 185.815 106.925 183.867C106.925 181.092 104.583 179.759 102.516 179.759H97.8795V194.395H100.08V187.968H102.146L106.759 194.395ZM100.08 186.091V181.636H102.122C103.431 181.636 104.646 182.345 104.646 183.859C104.646 185.374 103.431 186.083 102.122 186.083H100.08V186.091Z" fill="white"/>
<path d="M118.635 194.395V187.644L124.258 179.75H121.987L119.053 183.883C118.659 184.458 118.067 185.302 117.657 185.949H117.61C117.2 185.302 116.672 184.498 116.23 183.883L113.296 179.75H110.868L116.467 187.644V194.395H118.643H118.635Z" fill="white"/>
<path d="M144.178 179.451C140.274 179.451 136.418 182.345 136.418 187.045C136.418 191.745 140.274 194.663 144.178 194.663C148.081 194.663 151.929 191.793 151.929 187.045C151.929 182.298 148.073 179.451 144.178 179.451ZM144.178 192.739C141.473 192.739 138.673 190.673 138.673 187.045C138.673 183.418 141.473 181.375 144.178 181.375C146.882 181.375 149.682 183.418 149.682 187.045C149.682 190.673 146.835 192.739 144.178 192.739Z" fill="white"/>
<path d="M164.61 181.383C166.124 181.383 167.575 181.888 168.285 182.345L168.671 180.421C167.78 179.916 166.376 179.459 164.358 179.459C160.706 179.459 156.464 182.006 156.464 187.077C156.464 192.147 160.659 194.671 164.358 194.671C166.242 194.671 167.275 194.442 168.19 193.961L168.647 191.832C167.733 192.384 166.353 192.755 164.61 192.755C161.676 192.755 158.711 190.87 158.711 187.085C158.711 183.299 161.739 181.399 164.61 181.399V181.383Z" fill="white"/>
<path d="M175.926 187.991H180.673V186.083H175.926V181.659H181.596V179.75H173.702V194.395H182.4V192.486H175.926V187.991Z" fill="white"/>
<path d="M195.933 190.601L197.518 194.387H199.765L193.519 179.538H192.715L186.477 194.387H188.654L190.239 190.601H195.925H195.933ZM192.447 185.255C192.652 184.774 192.904 184.088 193.07 183.465H193.117C193.299 184.08 193.527 184.774 193.74 185.255L195.183 188.835H191.004L192.447 185.255Z" fill="white"/>
<path d="M217.469 179.75H215.245V186.682C215.245 187.739 215.245 189.001 215.292 190.12L215.245 190.144C214.346 189.048 213.021 187.573 212.17 186.635L205.885 179.75H204.347V194.387H206.571V187.045C206.571 185.949 206.571 184.703 206.523 183.378L206.571 183.354C207.58 184.545 208.842 186.02 209.946 187.211L216.806 194.718H217.469V179.758V179.75Z" fill="white"/>
<path d="M231.474 179.75V194.395H240.141V192.486H233.698V179.75H231.474Z" fill="white"/>
<path d="M246.931 179.75H244.707V194.387H246.931V179.75Z" fill="white"/>
<path d="M259.059 186.729C258.649 187.786 258.231 189.001 257.845 190.215H257.797C257.411 188.977 256.969 187.739 256.583 186.729L253.878 179.75H251.536L257.364 194.592H258.073L263.877 179.75H261.764L259.051 186.729H259.059Z" fill="white"/>
<path d="M270.722 179.75H268.498V194.387H270.722V179.75Z" fill="white"/>
<path d="M287.764 186.682C287.764 187.739 287.764 189.001 287.811 190.12L287.764 190.144C286.865 189.048 285.54 187.573 284.688 186.635L278.403 179.75H276.865V194.387H279.089V187.045C279.089 185.949 279.089 184.703 279.042 183.378L279.089 183.354C280.099 184.545 281.36 186.02 282.464 187.211L289.325 194.718H289.987V179.758H287.764V186.69V186.682Z" fill="white"/>
<path d="M303.188 188.93H306.564V191.981C305.877 192.462 304.821 192.738 303.464 192.738C300.484 192.738 297.542 190.877 297.542 187.092C297.542 183.307 300.57 181.375 303.441 181.375C304.978 181.375 306.422 181.856 307.502 182.542L307.912 180.61C306.832 179.924 305.207 179.443 303.188 179.443C299.537 179.443 295.295 181.99 295.295 187.061C295.295 192.131 299.38 194.655 303.322 194.655C305.507 194.655 307.273 194.197 308.669 193.07V187.124H303.188V188.914V188.93Z" fill="white"/>
</svg>
