<svg width="82" height="26" viewBox="0 0 82 26" fill="none" xmlns="http://www.w3.org/2000/svg">
<path d="M56.9023 18.2543C56.8537 18.2203 56.7935 18.2021 56.723 18.2021C56.6674 18.2021 56.6142 18.2192 56.5633 18.2509C56.5124 18.2838 56.4684 18.3258 56.4302 18.378C56.392 18.4301 56.355 18.4857 56.3203 18.5458L56.1259 18.9122L55.4686 20.1564L55.015 21.0139L53.9041 18.9122L53.7097 18.5458C53.6796 18.4857 53.6437 18.4301 53.6032 18.378C53.5627 18.3258 53.5188 18.2838 53.4702 18.2509C53.4216 18.2192 53.3672 18.2021 53.307 18.2021C53.2411 18.2021 53.182 18.2203 53.1323 18.2543C53.0814 18.2895 53.0559 18.3519 53.0559 18.4415V23.4468C53.0559 23.5115 53.0814 23.5603 53.1323 23.592C53.182 23.6249 53.2411 23.6408 53.307 23.6408C53.3672 23.6408 53.425 23.6249 53.4783 23.592C53.5315 23.5603 53.5581 23.5115 53.5581 23.4468V19.2456L54.6366 21.2759L54.8102 21.6026C54.8414 21.6616 54.8738 21.7024 54.9097 21.7251C54.9444 21.7478 54.978 21.7591 55.008 21.7591C55.0439 21.7591 55.0798 21.7466 55.1145 21.7217C55.1504 21.6967 55.1828 21.657 55.214 21.6026L55.3911 21.2759L55.4709 21.1273L56.4742 19.2661V23.4457C56.4742 23.5104 56.5008 23.5591 56.554 23.5909C56.6072 23.6238 56.6639 23.6397 56.7253 23.6397C56.7912 23.6397 56.8491 23.6238 56.9 23.5909C56.9509 23.5591 56.9764 23.5104 56.9764 23.4457V18.4403C56.9764 18.3507 56.9521 18.2883 56.9046 18.2532L56.9023 18.2543Z" fill="white"/>
<path d="M60.5404 21.2749C60.5208 21.1138 60.4814 20.9607 60.4213 20.8133C60.3865 20.7293 60.3449 20.6511 60.2928 20.5796C60.213 20.4639 60.11 20.3652 59.9885 20.2824C59.7883 20.1452 59.5198 20.0771 59.1808 20.0771C59.0234 20.0771 58.866 20.0953 58.7063 20.1327C58.5466 20.1702 58.4159 20.2178 58.3117 20.2745C58.2076 20.3324 58.1567 20.3925 58.1567 20.4571C58.1567 20.5127 58.174 20.5694 58.2099 20.6284C58.2446 20.6885 58.2932 20.718 58.3534 20.718C58.3951 20.718 58.4448 20.6998 58.5061 20.6624C58.5675 20.625 58.6508 20.5887 58.7561 20.5547C58.8626 20.5195 58.9979 20.5025 59.1657 20.5025C59.3879 20.5025 59.5638 20.5535 59.6934 20.6545C59.823 20.7566 59.9167 20.8847 59.9734 21.0412C60.0024 21.1195 60.0243 21.1989 60.0394 21.276C60.0544 21.3554 60.0614 21.4348 60.0614 21.5131V21.6923H59.6737C59.3254 21.6923 59.0176 21.7207 58.7526 21.7774C58.4876 21.8352 58.2793 21.9362 58.1301 22.0825C57.9796 22.2288 57.9067 22.4375 57.9067 22.7108C57.9067 23.0432 58.0074 23.2904 58.2099 23.4504C58.3187 23.5377 58.4379 23.6012 58.5709 23.6409C58.6844 23.6761 58.8059 23.6931 58.9378 23.6931C59.0697 23.6931 59.2016 23.6761 59.3196 23.6409C59.4226 23.6125 59.5175 23.5694 59.6043 23.5139C59.7918 23.3948 59.9503 23.2643 60.0822 23.1203V23.447C60.0822 23.5014 60.1053 23.5479 60.1516 23.5853C60.1921 23.6194 60.2396 23.6375 60.2928 23.6398C60.2986 23.6398 60.3055 23.6398 60.3113 23.6398C60.3865 23.6398 60.4467 23.6216 60.4895 23.5842C60.5323 23.5468 60.5543 23.5003 60.5543 23.4458V21.512C60.5543 21.4314 60.5497 21.352 60.5404 21.2749ZM60.0614 22.501C60.0614 22.611 60.0116 22.7244 59.9121 22.8469C59.8137 22.9683 59.6888 23.0704 59.5372 23.1555C59.3856 23.2394 59.2259 23.2814 59.0593 23.2814C58.8764 23.2814 58.7214 23.2326 58.5929 23.1328C58.4633 23.033 58.3985 22.8776 58.3985 22.6643C58.3985 22.4704 58.4633 22.3297 58.5929 22.2401C58.7214 22.1505 58.888 22.0927 59.0928 22.0655C59.2988 22.0371 59.514 22.0235 59.7432 22.0235H60.0614V22.4999V22.501Z" fill="white"/>
<path d="M63.4611 20.1407C63.4229 20.0987 63.3766 20.0771 63.3199 20.0771H63.0549C62.9288 20.0771 62.8131 20.093 62.7066 20.1271C62.6731 20.1373 62.6395 20.1497 62.6071 20.1634C62.4752 20.2201 62.3629 20.2938 62.2669 20.3823C62.1697 20.4707 62.0945 20.566 62.0389 20.6635V20.2995C62.0389 20.245 62.017 20.2019 61.9707 20.169C61.9255 20.1373 61.8688 20.1202 61.804 20.1202C61.7392 20.1202 61.6802 20.1373 61.6328 20.169C61.5842 20.2019 61.5599 20.245 61.5599 20.2995V23.4458C61.5599 23.4957 61.5842 23.54 61.6328 23.5797C61.6802 23.6194 61.7381 23.6398 61.804 23.6398C61.8746 23.6398 61.9336 23.6194 61.9822 23.5797C62.0308 23.54 62.0551 23.4957 62.0551 23.4458V21.6084C62.0551 21.4881 62.069 21.377 62.0956 21.2749C62.1188 21.1842 62.1535 21.1002 62.1986 21.0254C62.2958 20.8643 62.4196 20.7407 62.5747 20.6533C62.6187 20.6284 62.6626 20.608 62.7078 20.591C62.8212 20.5456 62.9369 20.5229 63.0561 20.5229H63.3211C63.3778 20.5229 63.4241 20.5014 63.4623 20.456C63.5004 20.4117 63.519 20.3596 63.519 20.2995C63.519 20.2348 63.5004 20.1815 63.4623 20.1395L63.4611 20.1407Z" fill="white"/>
<path d="M67.0229 23.3131L65.7107 21.4302L65.8912 21.2748L66.8262 20.4707C66.847 20.4514 66.8609 20.4298 66.869 20.4072C66.8759 20.3856 66.8805 20.3618 66.8805 20.3368C66.8805 20.2926 66.8667 20.2529 66.8424 20.2177C66.8169 20.1826 66.7845 20.1554 66.7463 20.1361C66.7093 20.1157 66.6699 20.1055 66.6294 20.1055C66.5936 20.1055 66.5554 20.1202 66.5149 20.1508L65.2258 21.2737L65.1182 21.3679L64.6634 21.7637V18.1421C64.6634 18.0877 64.6391 18.0434 64.5905 18.0117C64.5431 17.9788 64.4829 17.9629 64.4123 17.9629C64.3464 17.9629 64.2897 17.9788 64.2411 18.0117C64.1925 18.0434 64.1693 18.0877 64.1693 18.1421V23.4446C64.1693 23.4945 64.1925 23.5388 64.2411 23.5785C64.2897 23.6182 64.3464 23.6386 64.4123 23.6386C64.4829 23.6386 64.5431 23.6182 64.5905 23.5785C64.6391 23.5388 64.6634 23.4945 64.6634 23.4446V22.3365L65.1182 21.9452L65.3612 21.7342L66.6352 23.5717C66.6584 23.6034 66.6861 23.6261 66.7162 23.6386C66.7382 23.6488 66.7625 23.6533 66.788 23.6533C66.8146 23.6533 66.8424 23.6488 66.8701 23.6386C66.884 23.6341 66.8991 23.6272 66.9129 23.6204C66.9558 23.5978 66.9905 23.566 67.0159 23.5263C67.0414 23.4866 67.0541 23.4492 67.0541 23.4151C67.0541 23.3754 67.0437 23.3403 67.0229 23.3108V23.3131Z" fill="white"/>
<path d="M69.7052 21.9972C69.7885 21.9972 69.8672 21.9916 69.9412 21.9802C69.9679 21.9768 69.9945 21.9723 70.0199 21.9677C70.1183 21.9485 70.2016 21.8986 70.2664 21.8169C70.3312 21.7364 70.3648 21.6002 70.3648 21.4097C70.3648 21.3643 70.3625 21.319 70.3578 21.2747C70.3393 21.0706 70.2757 20.8857 70.1669 20.7201C70.1021 20.6203 70.0257 20.5318 69.9412 20.4547C69.8545 20.3741 69.7561 20.305 69.6485 20.2471C69.4333 20.1326 69.1995 20.0747 68.9472 20.0747C68.695 20.0747 68.4427 20.136 68.2229 20.2585C68.0018 20.3809 67.8271 20.5443 67.6952 20.7496C67.6165 20.8732 67.561 21.0025 67.5297 21.1386C67.5193 21.184 67.5112 21.2282 67.5066 21.2747C67.4996 21.3235 67.4973 21.3734 67.4973 21.4244V22.2456C67.4973 22.3556 67.5077 22.46 67.5297 22.5575C67.5633 22.7107 67.6223 22.849 67.7068 22.9749C67.8456 23.1836 68.0377 23.3458 68.2842 23.4638C68.5283 23.5806 68.8107 23.6396 69.1289 23.6396C69.3615 23.6396 69.564 23.6112 69.7364 23.5557C69.814 23.5307 69.8834 23.5024 69.9436 23.4729C70.0188 23.4354 70.0813 23.3957 70.1322 23.3526C70.2236 23.2744 70.2699 23.2086 70.2699 23.1541C70.2699 23.1247 70.2606 23.0929 70.2433 23.0589C70.2248 23.0248 70.1993 22.9942 70.1669 22.967C70.1333 22.9398 70.0975 22.9262 70.057 22.9262C70.0199 22.9262 69.9829 22.9364 69.9436 22.9579C69.9227 22.9681 69.9007 22.9829 69.8776 22.9999C69.814 23.0487 69.7272 23.0986 69.6161 23.1473C69.505 23.1961 69.3488 23.2211 69.1463 23.2211C68.8119 23.2211 68.5365 23.1349 68.3189 22.9647C68.1014 22.7935 67.9926 22.5609 67.9926 22.2683V21.9972H69.7075H69.7052ZM68.1199 20.9152C68.2067 20.7802 68.3212 20.6736 68.4647 20.5931C68.6093 20.5114 68.7667 20.4717 68.9391 20.4717C69.1266 20.4717 69.2921 20.5159 69.4367 20.6033C69.5814 20.6917 69.6913 20.8074 69.77 20.9481C69.8278 21.0535 69.8649 21.1624 69.8799 21.2747C69.8857 21.3144 69.888 21.3541 69.888 21.395C69.888 21.4982 69.8626 21.5662 69.8116 21.598C69.7607 21.6297 69.6601 21.6456 69.5085 21.6456H67.9903V21.3677C67.9903 21.336 67.9914 21.3053 67.9961 21.2759C68.0088 21.1454 68.0504 21.0263 68.1199 20.9163V20.9152Z" fill="white"/>
<path d="M72.5923 23.2008H72.3793C72.3701 23.2008 72.3608 23.2008 72.3516 23.2008C72.1039 23.1986 71.9281 23.1498 71.8251 23.0568C71.7186 22.9592 71.6654 22.7902 71.6654 22.5475V20.524H72.6524C72.7022 20.524 72.7427 20.5048 72.7739 20.4651C72.804 20.4254 72.8191 20.3777 72.8191 20.3233C72.8191 20.2688 72.804 20.2212 72.7739 20.1815C72.7427 20.1418 72.7022 20.1214 72.6524 20.1214H71.6654V18.6265C71.6654 18.572 71.6399 18.5278 71.589 18.496C71.5381 18.4643 71.4802 18.4473 71.4143 18.4473C71.3587 18.4473 71.3043 18.4643 71.2511 18.496C71.1979 18.5278 71.1713 18.572 71.1713 18.6265V22.5464C71.1713 22.9275 71.2743 23.2042 71.4814 23.3789C71.685 23.5479 71.9732 23.6341 72.3493 23.6375C72.3585 23.6375 72.3678 23.6375 72.377 23.6375H72.5899C72.6605 23.6375 72.7149 23.6148 72.7531 23.5706C72.7913 23.5252 72.811 23.473 72.811 23.4141C72.811 23.3551 72.7913 23.3029 72.7531 23.2609C72.7149 23.219 72.6605 23.1974 72.5899 23.1974L72.5923 23.2008Z" fill="white"/>
<path d="M73.9427 20.1245C73.8941 20.0916 73.8351 20.0758 73.7633 20.0758C73.6974 20.0758 73.6407 20.0916 73.5932 20.1245C73.5446 20.1574 73.5203 20.2017 73.5203 20.2572V23.4444C73.5203 23.4943 73.5446 23.5397 73.5932 23.5805C73.6407 23.6202 73.6974 23.6407 73.7633 23.6407C73.8351 23.6407 73.8941 23.6202 73.9427 23.5805C73.9913 23.5397 74.0144 23.4943 74.0144 23.4444V20.2572C74.0144 20.2017 73.9913 20.1574 73.9427 20.1245ZM74.004 18.5525C73.9404 18.4935 73.8605 18.4629 73.7645 18.4629C73.6742 18.4629 73.5955 18.4935 73.5296 18.5525C73.4636 18.6126 73.4301 18.6841 73.4301 18.7691C73.4301 18.8213 73.4428 18.8689 73.4694 18.9132C73.4844 18.9404 73.5041 18.9654 73.5296 18.9892C73.5955 19.0516 73.6742 19.0822 73.7645 19.0822C73.8617 19.0822 73.9415 19.0516 74.004 18.9892C74.0283 18.9654 74.0468 18.9404 74.0619 18.9132C74.0862 18.8689 74.0989 18.8213 74.0989 18.7691C74.0989 18.6841 74.0665 18.6126 74.004 18.5525Z" fill="white"/>
<path d="M77.8898 21.2751C77.8666 21.0913 77.8099 20.9234 77.7197 20.7681C77.5981 20.5594 77.435 20.3926 77.2302 20.2667C77.2117 20.2554 77.1943 20.2452 77.1758 20.2361C76.9849 20.1295 76.78 20.0762 76.5579 20.0762C76.3056 20.0762 76.0927 20.1352 75.9203 20.2508C75.7478 20.3677 75.6217 20.4981 75.5407 20.6422V20.2996C75.5407 20.2452 75.5176 20.2021 75.4724 20.1692C75.4262 20.1374 75.3706 20.1204 75.3047 20.1204C75.2387 20.1204 75.182 20.1374 75.1334 20.1692C75.0859 20.2021 75.0616 20.2452 75.0616 20.2996V23.446C75.0616 23.4959 75.0859 23.5401 75.1334 23.5798C75.182 23.6195 75.2387 23.6399 75.3047 23.6399C75.3764 23.6399 75.4354 23.6195 75.484 23.5798C75.5315 23.5401 75.5558 23.4959 75.5558 23.446V21.4679C75.5558 21.3998 75.5604 21.3352 75.572 21.2751C75.5916 21.1571 75.6298 21.0539 75.6888 20.962C75.7779 20.8236 75.8913 20.7159 76.0302 20.6388C76.169 20.5616 76.3149 20.5231 76.4664 20.5231C76.6389 20.5231 76.7951 20.5696 76.9374 20.6614C77.0277 20.7204 77.1075 20.7907 77.1746 20.8713C77.2128 20.9155 77.2475 20.9643 77.2776 21.0153C77.3285 21.1004 77.3644 21.1877 77.3841 21.2762C77.4003 21.3397 77.4072 21.4032 77.4072 21.469V23.4471C77.4072 23.5118 77.4338 23.5605 77.4871 23.5923C77.5403 23.6252 77.5947 23.6411 77.6514 23.6411C77.7162 23.6411 77.7752 23.6252 77.8261 23.5923C77.8759 23.5605 77.9013 23.5118 77.9013 23.4471V21.469C77.9013 21.4032 77.8979 21.3386 77.8898 21.2762V21.2751Z" fill="white"/>
<path d="M81.6228 20.3956C81.7107 20.3457 81.7883 20.315 81.8554 20.3037C81.8947 20.2924 81.9294 20.2719 81.9572 20.2413C81.9861 20.2107 82 20.1699 82 20.12C82 20.0701 81.978 20.0213 81.9364 19.9736C81.8936 19.9271 81.8299 19.9033 81.7454 19.9033C81.6424 19.9033 81.5395 19.9476 81.4318 20.036C81.3242 20.1256 81.2282 20.2549 81.1437 20.4273C81.0199 20.3162 80.8729 20.23 80.7028 20.1699C80.5339 20.1086 80.3499 20.078 80.152 20.078C79.9541 20.078 79.7574 20.1075 79.5873 20.1653C79.5144 20.1891 79.4462 20.2186 79.3802 20.2538C79.1592 20.3706 78.9902 20.5306 78.871 20.737C78.7785 20.8969 78.7218 21.0761 78.7021 21.2746C78.6952 21.3302 78.6928 21.3869 78.6928 21.4459V21.7612C78.6928 21.9778 78.7322 22.1763 78.812 22.3578C78.8919 22.5381 79.0076 22.689 79.1592 22.8115C79.0342 22.8727 78.9335 22.9487 78.8548 23.0395C78.775 23.1313 78.7357 23.2561 78.7357 23.4104C78.7357 23.4977 78.7484 23.5737 78.775 23.6383C78.7958 23.6939 78.8271 23.7416 78.8676 23.7801C78.9555 23.8675 79.0666 23.9355 79.202 23.9854C79.0145 24.058 78.8491 24.1658 78.7021 24.3098C78.554 24.4539 78.4811 24.6478 78.4811 24.8928C78.4811 25.1208 78.5563 25.3159 78.7056 25.4803C78.856 25.6448 79.0585 25.7718 79.3166 25.8637C79.4022 25.8943 79.4924 25.9204 79.5862 25.9397C79.7748 25.9805 79.9785 26.001 80.2018 26.001C80.5235 26.001 80.8093 25.9567 81.0581 25.8682C81.3057 25.7786 81.5024 25.6471 81.6471 25.4724C81.7917 25.2966 81.8635 25.08 81.8635 24.8179C81.8635 24.5559 81.7998 24.3654 81.6725 24.2259C81.5452 24.0875 81.3821 23.9854 81.1807 23.9185C80.9794 23.8516 80.7688 23.8062 80.5455 23.7801C80.3221 23.7552 80.1115 23.7325 79.9136 23.7098C79.791 23.6962 79.6822 23.6758 79.5862 23.6497C79.5734 23.6463 79.5607 23.6429 79.5491 23.6383C79.504 23.6247 79.4612 23.61 79.4219 23.593C79.2911 23.5374 79.2263 23.4478 79.2263 23.3264C79.2263 23.238 79.2541 23.1699 79.3108 23.1223C79.3675 23.0746 79.4276 23.0349 79.489 23.0009C79.5202 23.0168 79.5526 23.0304 79.5862 23.0429C79.754 23.1098 79.938 23.1427 80.1428 23.1427C80.4297 23.1427 80.6866 23.0837 80.9088 22.9635C81.1321 22.8444 81.3057 22.6799 81.4307 22.4678C81.5545 22.2569 81.617 22.0209 81.617 21.7601V21.4447C81.617 21.3858 81.6135 21.3291 81.6066 21.2735C81.5985 21.185 81.5823 21.0999 81.558 21.0194C81.5186 20.8856 81.4585 20.7676 81.3798 20.6621C81.4527 20.534 81.5337 20.4444 81.6205 20.3956H81.6228ZM79.5885 24.1692C79.6475 24.1431 79.7088 24.1204 79.7725 24.1011C79.9021 24.1181 80.056 24.134 80.2342 24.151C80.4124 24.168 80.5836 24.1953 80.7514 24.235C80.9181 24.2735 81.0558 24.3393 81.1669 24.4312C81.2768 24.523 81.3323 24.6569 81.3323 24.835C81.3323 25.0618 81.2317 25.2456 81.0315 25.3851C80.8301 25.5234 80.5524 25.5938 80.1972 25.5938C79.9634 25.5938 79.7597 25.5654 79.5896 25.5076C79.4936 25.4758 79.4068 25.435 79.3328 25.3851C79.1233 25.2456 79.0192 25.0652 79.0192 24.8429C79.0192 24.6421 79.0955 24.4856 79.2494 24.3677C79.3536 24.2883 79.467 24.2225 79.5908 24.1692H79.5885ZM81.0766 21.4447V21.7601C81.0766 22.0379 80.9968 22.2705 80.8359 22.4553C80.6751 22.6414 80.4506 22.7344 80.1624 22.7344C79.9322 22.7344 79.7412 22.6754 79.5896 22.5563C79.5491 22.5257 79.511 22.4894 79.4762 22.4497C79.3119 22.2603 79.2309 22.0277 79.2309 21.751V21.4436C79.2309 21.3846 79.2344 21.3268 79.2425 21.2723C79.2703 21.0738 79.3466 20.9037 79.4728 20.7597C79.5086 20.7188 79.548 20.6825 79.5908 20.6519C79.7401 20.5396 79.9275 20.484 80.1555 20.484C80.4494 20.484 80.6774 20.5759 80.8371 20.7585C80.9644 20.9026 81.0407 21.0727 81.0673 21.2712C81.0754 21.3256 81.0789 21.3835 81.0789 21.4425L81.0766 21.4447Z" fill="white"/>
<path d="M62.8177 12.1475C62.7853 12.0886 62.7471 12.0386 62.7055 11.9967C62.5932 11.8833 62.4509 11.8265 62.275 11.8265H61.4847V10.056C61.4847 9.80988 61.3666 9.63181 61.1317 9.52519C61.0716 9.49797 61.0102 9.47415 60.9477 9.45373C60.7649 9.39475 60.5717 9.36413 60.3657 9.36413C60.3414 9.36413 60.3171 9.36413 60.2928 9.36526C60.1065 9.37094 59.9341 9.40156 59.7721 9.45373C59.7107 9.47415 59.6494 9.49797 59.5915 9.52519C59.3624 9.63181 59.2479 9.80875 59.2479 10.056V11.8265H57.2194L57.224 11.8186L57.8824 10.5279L58.4309 9.45373L59.6355 7.08999L60.2939 5.80037L60.5219 5.35235C60.5786 5.22872 60.6075 5.13344 60.6075 5.06652C60.6075 4.93836 60.574 4.82607 60.5069 4.72626C60.4802 4.68542 60.4478 4.64686 60.4097 4.61056C60.3726 4.5754 60.3333 4.54364 60.2928 4.51302C60.1898 4.43589 60.0764 4.37237 59.9537 4.3236C59.7813 4.25555 59.6274 4.22266 59.4886 4.22266C59.3046 4.22266 59.131 4.26462 58.9644 4.34856C58.8162 4.42342 58.6901 4.55045 58.5837 4.72512C58.5698 4.74781 58.5559 4.77162 58.5432 4.79544L57.8813 6.07032L57.3513 7.08999L56.1258 9.45373L55.4686 10.7195L54.8981 11.8186L54.4653 12.6523C54.4318 12.7203 54.4028 12.7929 54.3797 12.8712C54.3565 12.9494 54.345 13.0232 54.345 13.0901C54.345 13.326 54.4202 13.5143 54.5683 13.6561C54.7176 13.7967 54.9004 13.867 55.1191 13.867H59.2467V15.8553C59.2467 16.0811 59.3613 16.2512 59.5904 16.3703C59.7998 16.478 60.0336 16.537 60.2905 16.5461C60.3148 16.5461 60.3391 16.5461 60.3634 16.5461C60.6388 16.5461 60.8945 16.4871 61.1283 16.3691C61.3632 16.2501 61.4812 16.0799 61.4812 15.8542V13.8659H62.2715C62.4278 13.8659 62.5701 13.7888 62.702 13.6356C62.7251 13.6084 62.7483 13.5789 62.7714 13.546C62.9207 13.3328 62.9936 13.1014 62.9936 12.8553C62.9936 12.5967 62.9334 12.3608 62.8131 12.1475H62.8177Z" fill="white"/>
<path d="M72.1792 7.09226C72.097 6.59774 71.9443 6.17354 71.7233 5.82079C71.4259 5.34441 71.0359 4.98032 70.5534 4.72739C70.4654 4.67975 70.3752 4.63779 70.2826 4.59922C70.1715 4.55272 70.0581 4.51189 69.9424 4.47446C69.424 4.30546 68.857 4.22266 68.2448 4.22266C67.9995 4.22266 67.7611 4.23627 67.5309 4.26349C67.0587 4.31907 66.6202 4.43135 66.2152 4.59922C66.1214 4.63779 66.0312 4.68089 65.9456 4.72739C65.6308 4.89412 65.3554 5.10849 65.1205 5.37277C64.9955 5.50888 64.8844 5.65746 64.7826 5.82079C64.5627 6.17354 64.41 6.59774 64.3278 7.09226C64.2781 7.38716 64.2538 7.70815 64.2538 8.05296V12.7181C64.2538 13.2716 64.3174 13.7593 64.4436 14.1835C64.528 14.4682 64.6426 14.7245 64.7826 14.9502C64.8844 15.1136 64.9978 15.2621 65.1205 15.3994C65.4214 15.7351 65.7882 15.9937 66.2163 16.1707C66.6213 16.3397 67.0599 16.4508 67.532 16.5064C67.7623 16.5336 68.0007 16.5472 68.246 16.5472C68.8593 16.5472 69.4251 16.4633 69.9435 16.2954C70.0604 16.258 70.1738 16.2172 70.2838 16.1707C70.8924 15.9211 71.3738 15.5128 71.7256 14.9502C71.8679 14.7245 71.9813 14.4682 72.0658 14.1835C72.1919 13.7593 72.2556 13.2716 72.2556 12.7181V8.05296C72.2556 7.70815 72.2313 7.3883 72.1815 7.09226H72.1792ZM70.035 12.7181C70.035 13.0096 70.0037 13.267 69.9412 13.4905C69.8625 13.7706 69.7341 13.9986 69.5571 14.1721C69.5536 14.1755 69.549 14.1789 69.5455 14.1823C69.2284 14.4875 68.7945 14.6406 68.2437 14.6406C67.9787 14.6406 67.7392 14.6043 67.5297 14.534C67.3041 14.4568 67.1108 14.34 66.9488 14.1823L66.9384 14.1721C66.626 13.8602 66.4697 13.3759 66.4697 12.7169V8.05182C66.4697 7.67526 66.5207 7.35541 66.6237 7.09113C66.7 6.89377 66.8053 6.73044 66.9384 6.5966C67.1027 6.43327 67.2983 6.31305 67.5297 6.23478C67.7403 6.16446 67.9787 6.12817 68.2437 6.12817C68.8014 6.12817 69.2388 6.28469 69.5571 6.5966C69.6936 6.73044 69.7989 6.89377 69.8776 7.09113C69.9019 7.15124 69.9227 7.21363 69.9412 7.28055C70.0037 7.50286 70.035 7.76033 70.035 8.05182V12.7169V12.7181Z" fill="white"/>
<path d="M77.1399 4.72739C77.0925 4.60489 76.9987 4.50168 76.8599 4.41661C76.647 4.28731 76.4282 4.22266 76.1991 4.22266C76.095 4.22266 76.007 4.2374 75.933 4.26576C75.8589 4.29298 75.7872 4.33495 75.7189 4.39166L75.2699 4.72739L74.7642 5.10509L73.6939 5.90472C73.5562 5.99433 73.4543 6.10888 73.3849 6.24839C73.3166 6.38904 73.2819 6.53649 73.2819 6.69415C73.2819 6.83252 73.3097 6.9641 73.3664 7.09113C73.3953 7.16032 73.4335 7.22724 73.4798 7.29189C73.6117 7.47677 73.7853 7.56864 74.0028 7.56864C74.0607 7.56864 74.1232 7.55503 74.1926 7.52667C74.2609 7.49832 74.3303 7.46202 74.3986 7.41665L74.7654 7.0571L74.9482 6.87789V15.8565C74.9482 16.0799 75.0651 16.2512 75.2989 16.3691C75.5326 16.4871 75.7883 16.5461 76.0626 16.5461C76.3368 16.5461 76.6053 16.4871 76.8344 16.3691C77.0635 16.2512 77.1769 16.0811 77.1769 15.8565V4.93042C77.1769 4.85669 77.1642 4.78977 77.1399 4.72739Z" fill="white"/>
<path d="M8.59656 4.72751C8.52713 4.54036 8.44497 4.36682 8.35356 4.20576C8.06311 3.69876 7.68934 3.30291 7.23689 3.01709C7.10845 2.93429 6.97422 2.8617 6.83189 2.79818C6.23016 2.5271 5.56132 2.38305 4.82421 2.36604C4.77329 2.36604 4.72354 2.36377 4.67262 2.36377H0.93383C0.66074 2.36377 0.43625 2.44317 0.261519 2.59969C0.08563 2.75848 0 2.94223 0 3.15206V15.7386C0 16.0006 0.127288 16.2014 0.383021 16.3398C0.637596 16.4782 0.915315 16.5473 1.21386 16.5473C1.51241 16.5473 1.80633 16.4782 2.05512 16.3398C2.24952 16.232 2.36755 16.088 2.41037 15.9054C2.4231 15.8532 2.42888 15.7976 2.42888 15.7386V11.3923H4.52103C4.62286 11.3923 4.72354 11.39 4.8219 11.3855C5.52429 11.3537 6.16883 11.2074 6.75436 10.9488C6.9233 10.8728 7.08299 10.7866 7.23458 10.689C7.67893 10.3998 8.04459 10.0096 8.33273 9.51964C8.34546 9.49922 8.35703 9.47767 8.3686 9.45612C8.70996 8.84364 8.89163 8.05648 8.91015 7.09238C8.91131 7.03454 8.91246 6.97556 8.91246 6.91658V6.79862C8.91246 5.98764 8.80601 5.29689 8.5954 4.72751H8.59656ZM2.43004 4.61068H4.52219C4.62634 4.61068 4.72701 4.61635 4.82305 4.62656C4.98853 4.64471 5.14243 4.6776 5.28476 4.72751C5.55438 4.81938 5.7835 4.96797 5.97096 5.17213C6.31348 5.54642 6.48474 6.11581 6.48474 6.87688V7.11393C6.48474 7.875 6.31348 8.44439 5.97096 8.81868C5.6863 9.1306 5.30327 9.31207 4.82421 9.36425C4.72701 9.37446 4.62634 9.38013 4.52335 9.38013H2.4312V4.61068H2.43004Z" fill="white"/>
<path d="M17.6652 8.05193C17.4604 7.91922 17.2 7.84663 16.8818 7.83869C16.8564 7.83643 16.8298 7.83643 16.8031 7.83643C16.4965 7.83643 16.2234 7.90902 15.985 8.05193C15.7478 8.19598 15.6275 8.36384 15.6275 8.55666V12.894C15.6275 13.1582 15.5546 13.4168 15.4064 13.6675C15.2884 13.8717 15.1403 14.0429 14.9621 14.1836C14.9193 14.2176 14.8741 14.2494 14.8279 14.28C14.7156 14.3537 14.5953 14.4093 14.4691 14.4479C14.3257 14.4932 14.1729 14.5148 14.0109 14.5148C13.717 14.5148 13.4474 14.4343 13.2032 14.2721C13.1615 14.2448 13.121 14.2153 13.0817 14.1847C12.8919 14.0395 12.7369 13.8694 12.6154 13.6686C12.4684 13.4293 12.3955 13.1707 12.3955 12.8951V8.57481C12.3955 8.39787 12.2821 8.23341 12.0588 8.07915C12.0553 8.07688 12.0507 8.07348 12.0472 8.07121C11.8146 7.91469 11.538 7.83756 11.221 7.83756C10.9039 7.83756 10.6227 7.91582 10.3855 8.07121C10.1471 8.22774 10.0268 8.39447 10.0268 8.57481V12.8951C10.0268 13.3454 10.1171 13.7741 10.2987 14.1847C10.3728 14.3549 10.463 14.5216 10.5683 14.6861C10.9282 15.2452 11.4131 15.6944 12.0194 16.0369C12.0322 16.0437 12.046 16.0517 12.0588 16.0585C12.6547 16.3851 13.312 16.5496 14.0306 16.5496C14.1799 16.5496 14.3257 16.5417 14.4703 16.5269C15.0142 16.4713 15.5256 16.3114 16.0047 16.046C16.3333 15.8634 16.6272 15.6479 16.883 15.3995C17.0994 15.1908 17.2903 14.9594 17.4558 14.7042C17.5646 14.5341 17.6583 14.3617 17.7335 14.1847C17.9105 13.7775 17.9973 13.3465 17.9973 12.8951V8.5578C17.9973 8.36498 17.8862 8.19711 17.6664 8.05306L17.6652 8.05193Z" fill="white"/>
<path d="M26.8034 9.66612C26.7652 9.59352 26.727 9.5232 26.6853 9.45515C26.6356 9.37121 26.5835 9.29068 26.5291 9.21469C26.2861 8.86535 25.9945 8.57158 25.6543 8.33566C25.1891 8.0124 24.6753 7.84567 24.1164 7.83887C24.1025 7.83887 24.0887 7.83887 24.0748 7.83887C23.4615 7.83887 22.9454 7.98065 22.523 8.2642C22.1654 8.50466 21.8912 8.77121 21.7049 9.0593C21.6725 9.11034 21.6424 9.16252 21.6146 9.21469V8.67139C21.6146 8.45475 21.5128 8.27895 21.3115 8.14624C21.109 8.01354 20.8625 7.94662 20.5686 7.94662C20.226 7.94662 19.9437 8.01354 19.7238 8.14624C19.504 8.27895 19.394 8.45362 19.394 8.67139V15.8068C19.394 15.9883 19.504 16.1562 19.7238 16.3138C19.9449 16.4715 20.226 16.5486 20.5686 16.5486C20.9111 16.5486 21.1807 16.4704 21.4133 16.3138C21.5522 16.2197 21.6494 16.121 21.7049 16.0189C21.7431 15.9498 21.7616 15.8794 21.7616 15.8068V11.5149C21.7616 11.178 21.8357 10.8865 21.9815 10.6461C22.1284 10.4045 22.3182 10.2174 22.5508 10.0846C22.7834 9.95081 23.0229 9.88502 23.2671 9.88502C23.5598 9.88502 23.8306 9.96669 24.0748 10.1289C24.0887 10.138 24.1025 10.1482 24.1164 10.1584C24.3421 10.316 24.5203 10.5066 24.6533 10.7357C24.7945 10.9762 24.8651 11.237 24.8651 11.5138V15.8057C24.8651 16.0462 24.9947 16.2311 25.2504 16.3581C25.5073 16.4851 25.7712 16.5486 26.0396 16.5486C26.2132 16.5486 26.3752 16.5282 26.5291 16.4863C26.6483 16.4568 26.7594 16.4137 26.8658 16.3581C27.1112 16.2311 27.2338 16.0473 27.2338 15.8057V11.5138C27.2338 10.8389 27.0892 10.2219 26.8022 9.66612H26.8034Z" fill="white"/>
<path d="M33.6607 14.5918H32.9444C32.5649 14.5918 32.2987 14.5203 32.146 14.3763C31.9932 14.2323 31.9169 13.9873 31.9169 13.6402V9.71121H34.0842C34.2798 9.71121 34.4302 9.625 34.5344 9.45147C34.6385 9.27793 34.6906 9.08398 34.6906 8.86847C34.6906 8.65297 34.6385 8.45901 34.5344 8.28548C34.4302 8.11194 34.2798 8.02574 34.0842 8.02574H31.9169V4.94063C31.9169 4.72512 31.7907 4.55158 31.5408 4.42001C31.2897 4.28844 31.0178 4.22266 30.7238 4.22266C30.4542 4.22266 30.1915 4.28844 29.9347 4.42001C29.6778 4.55158 29.5493 4.72512 29.5493 4.94063V8.02574H28.4107C28.2151 8.02574 28.0647 8.11194 27.9605 8.28548C27.8564 8.45901 27.8043 8.65297 27.8043 8.86847C27.8043 9.08398 27.8564 9.27793 27.9605 9.45147C28.0647 9.625 28.2151 9.71121 28.4107 9.71121H29.5493V13.6413C29.5493 14.6462 29.8398 15.3812 30.4218 15.8474C31.0027 16.3136 31.8451 16.5472 32.9468 16.5472H33.663C34.0056 16.5472 34.2601 16.4463 34.4256 16.2421C34.5911 16.0391 34.6732 15.8111 34.6732 15.5604C34.6732 15.3098 34.5911 15.0999 34.4256 14.8969C34.2601 14.6939 34.0056 14.5918 33.663 14.5918H33.6607Z" fill="white"/>
<path d="M41.0008 3.9097C42.8083 3.9097 44.4769 4.49383 45.8215 5.47834C45.9338 5.56001 46.0888 5.55207 46.1872 5.45566L48.6334 3.05789C48.7503 2.94333 48.7387 2.75505 48.6103 2.65183C46.5343 0.993587 43.8856 0 41.0008 0C38.116 0 35.4661 0.993587 33.3901 2.65183C33.2617 2.75505 33.249 2.9422 33.367 3.05789L35.8132 5.45566C35.9116 5.55207 36.0666 5.56114 36.1789 5.47834C37.5247 4.49383 39.1921 3.9097 41.0008 3.9097Z" fill="white"/>
<path d="M49.0707 11.82C49.0707 13.5984 48.4701 15.2385 47.4599 16.5599C47.3824 16.662 47.3905 16.8026 47.4819 16.8934L49.9559 19.3184C50.0635 19.4238 50.2406 19.417 50.3366 19.3025C52.0376 17.2643 53.0594 14.6601 53.0594 11.8211C53.0594 8.98211 52.0376 6.37791 50.3366 4.3397C50.2406 4.22514 50.0624 4.21833 49.9559 4.32382L47.4819 6.74881C47.3905 6.83841 47.3824 6.98019 47.4599 7.08227C48.4713 8.40365 49.0707 10.0438 49.0707 11.8222V11.82Z" fill="white"/>
<path d="M41.0006 19.7302C39.1839 19.7302 37.5083 19.1404 36.1602 18.1468C36.0595 18.0731 35.9195 18.0799 35.8292 18.1672L33.346 20.6013C33.2418 20.7034 33.2476 20.8724 33.3622 20.9642C35.4416 22.635 38.1019 23.6388 41.0006 23.6388C43.8993 23.6388 46.5584 22.6361 48.639 20.9654C48.7536 20.8735 48.7594 20.7045 48.6552 20.6024L46.172 18.1684C46.0829 18.081 45.9428 18.0731 45.841 18.1479C44.4929 19.1404 42.8173 19.7302 41.0006 19.7302Z" fill="white"/>
<path d="M40.9994 16.5472C43.6631 16.5472 45.8225 14.4307 45.8225 11.8198C45.8225 9.20885 43.6631 7.09229 40.9994 7.09229C38.3357 7.09229 36.1764 9.20885 36.1764 11.8198C36.1764 14.4307 38.3357 16.5472 40.9994 16.5472Z" fill="#B71F35"/>
</svg>
