<svg width="17" height="20" viewBox="0 0 17 20" fill="none" xmlns="http://www.w3.org/2000/svg">
<path d="M0.69 12.96C2.65 14.92 5.21 16.05 7.96 16.17V17.22C7.54 17.41 7.25 17.84 7.25 18.33C7.25 19.01 7.8 19.56 8.47 19.56C9.14 19.56 9.7 19.01 9.7 18.33C9.7 17.84 9.41 17.41 8.99 17.22V16.17C11.74 16.04 14.3 14.92 16.26 12.96L16.95 12.27L10.1 5.42C10.11 5.34 10.12 5.26 10.12 5.18C10.12 4.45 9.64 3.83 8.99 3.62V2.34C9.41 2.15 9.7 1.72 9.7 1.23C9.7 0.55 9.15 0 8.47 0C7.79 0 7.25 0.55 7.25 1.23C7.25 1.72 7.54 2.15 7.96 2.34V3.62C7.3 3.84 6.83 4.46 6.83 5.18C6.83 5.26 6.83 5.34 6.85 5.42L0 12.27L0.69 12.96ZM14.15 12.23C12.68 13.42 10.89 14.11 8.99 14.21V7.07L14.15 12.23ZM7.48 5.05C7.49 4.95 7.52 4.86 7.55 4.77L7.32 4.5L7.67 4.56C7.73 4.48 7.8 4.42 7.87 4.36L7.81 4.01L8.08 4.24C8.17 4.2 8.26 4.18 8.36 4.17L8.48 3.84L8.6 4.17C8.7 4.18 8.79 4.21 8.88 4.24L9.15 4.01L9.09 4.36C9.17 4.42 9.23 4.49 9.29 4.56L9.64 4.5L9.41 4.77C9.45 4.86 9.47 4.95 9.48 5.05L9.81 5.17L9.48 5.29C9.47 5.39 9.44 5.48 9.41 5.57L9.64 5.84L9.29 5.78C9.23 5.86 9.16 5.92 9.09 5.98L9.15 6.33L8.88 6.1C8.79 6.14 8.7 6.16 8.6 6.17L8.48 6.5L8.36 6.17C8.26 6.16 8.17 6.13 8.08 6.1L7.81 6.33L7.87 5.98C7.79 5.92 7.73 5.85 7.67 5.78L7.32 5.84L7.55 5.57C7.51 5.48 7.49 5.39 7.48 5.29L7.15 5.17L7.48 5.05ZM7.96 7.07V14.21C6.06 14.1 4.27 13.42 2.8 12.23L7.96 7.07Z" fill="#6E5E41"/>
<path d="M8.47999 5.71987C8.77999 5.71987 9.02999 5.46987 9.02999 5.16987C9.02999 4.86987 8.77999 4.61987 8.47999 4.61987C8.17999 4.61987 7.92999 4.86987 7.92999 5.16987C7.92999 5.46987 8.17999 5.71987 8.47999 5.71987Z" fill="#6E5E41"/>
</svg>
