<?xml version="1.0" encoding="UTF-8"?>
<svg id="Capa_2" data-name="Capa 2" xmlns="http://www.w3.org/2000/svg" viewBox="0 0 1068.67 613.56">
  <defs>
    <style>
      .cls-1 {
        fill: none;
      }

      .cls-1, .cls-2 {
        stroke: #fff;
        stroke-miterlimit: 10;
        stroke-width: 2px;
      }

      .cls-2 {
        fill: #e7af19;
      }
    </style>
  </defs>
  <g id="Forma">
    <g>
      <polygon class="cls-2" points="100.53 449.24 172.37 449.8 172.37 373.14 100.53 376.14 100.53 449.24"/>

      <polygon class="cls-2" points="172.37 373.14 266.05 379.46 266.05 459.45 172.37 449.8 172.37 373.14"/>

      <polygon class="cls-2" points="408.94 466.21 408.94 380.61 266.05 379.42 266.05 459.41 408.94 466.21"/>

      <polygon class="cls-2" points="572.71 466.7 572.71 386.22 741 392.88 741 470.37 572.71 466.7"/>

      <polygon class="cls-2" points="912.93 463.54 912.93 394.99 1008.5 392.87 1008.5 467.2 912.93 463.54"/>

      <polygon class="cls-2" points="100.53 376.14 172.37 373.14 172.37 327 100.53 327 100.53 376.14"/>
      
      <polygon class="cls-2" points="172.37 327 266.05 327 266.05 373.42 172.37 373.14 172.37 327"/>

      <polygon class="cls-2" points="408.94 327 487.03 329 487.03 380.61 408.94 380.61 408.94 327"/>

      <polygon class="cls-2" points="572.71 386.22 572.71 327.84 741 327.84 741 386.88 572.71 386.22"/>

      <polygon class="cls-2" points="912.93 394.99 912.93 328.84 1008.5 328.84 1008.5 392.87 912.93 392.99"/>
      
      <polygon class="cls-2" points="100.53 327 172.37 327 172.37 276.4 100.53 276.4 100.53 327"/>

      <polygon class="cls-2" points="172.37 276.4 266.05 276.4 266.05 327 172.37 327 172.37 276.4"/>

      <polygon class="cls-2" points="408.94 268.51 487.03 268.51 487.03 329 408.94 329 408.94 268.51"/>
      
      <polygon class="cls-2" points="100.53 276.4 172.37 276.4 208.73 276.24 208.73 216.85 100.53 216.87 100.53 276.4"/>
      
      <polygon class="cls-2" points="332.51 270.51 487.03 270.51 487.03 210.21 332.56 210.27 332.51 270.51"/>

      <polygon class="cls-2" points="100.53 216.87 208.73 216.85 208.73 155.1 100.53 156.9 100.53 216.87"/>
      
      <polygon class="cls-2" points="572.71 201.05 741 198.45 741 128.57 572.71 137.54 572.71 201.05"/>
      
      
      <rect class="cls-1" x="1" y="1" width="1066.67" height="611.56"/>
    </g>
  </g>
</svg>