<svg width="200" height="57" viewBox="0 0 300 57" class="h-8" fill="none" xmlns="http://www.w3.org/2000/svg">
<path d="M96.8048 4.97849V26.3641C96.8048 33.2367 99.5948 36.4618 105.981 36.4618C112.367 36.4618 115.157 33.2367 115.157 26.3641V4.97849H119.291V26.3641C119.291 35.6427 114.914 40.2628 105.981 40.2628C97.048 40.2628 92.671 35.6427 92.671 26.3641V4.97849H96.8048Z" fill="#6E5E41"/>
<path d="M151.542 39.3541H147.114L142.648 28.8213H129.235L124.769 39.3541H120.34L135.916 3.63464L151.542 39.3541ZM130.438 25.3146H141.393L135.916 12.6701L130.438 25.3146Z" fill="#6E5E41"/>
<path d="M154.422 4.97849H161C167.437 4.97849 172.39 4.97849 176.575 8.2036C180.517 11.2368 182.578 16.036 182.578 22.1919C182.578 28.3478 180.517 33.1087 176.575 36.129C172.582 39.2006 168.064 39.3542 162.485 39.3542H154.409V4.97849H154.422ZM161.154 35.5019C167.015 35.5019 171.11 35.4507 173.99 33.0575C176.78 30.7538 178.316 27.004 178.316 22.1407C178.316 17.2774 176.831 13.63 173.99 11.2751C171.149 8.8691 167.066 8.77952 161.154 8.77952H158.556V35.5019H161.154Z" fill="#6E5E41"/>
<path d="M186.724 4.97849H194.8C198.063 4.97849 200.572 5.08087 202.683 6.70623C204.654 8.242 205.896 10.9808 205.896 14.3467C205.896 19.965 202.683 22.947 196.617 22.947H195.9L209.018 39.3414H203.822L191.28 22.947H190.704V39.3414H186.711V4.97849H186.724ZM190.717 19.9267H193.84C199.215 19.9267 201.864 19.1588 201.864 14.3979C201.864 9.39383 199.266 8.43397 193.84 8.43397H190.717V19.9267Z" fill="#6E5E41"/>
<path d="M240.195 39.3541H235.766L231.3 28.8213H217.887L213.421 39.3541H208.993L224.568 3.63464L240.195 39.3541ZM219.09 25.3146H230.046L224.568 12.6701L219.09 25.3146Z" fill="#6E5E41"/>
<path d="M243.612 3.63464L268.747 31.0865V4.97844H272.638V40.6979L247.502 13.5404V39.3541H243.612V3.63464Z" fill="#6E5E41"/>
<path d="M286.204 8.8691H276.49V4.97849H300V8.8691H290.337V39.3414H286.204V8.8691Z" fill="#6E5E41"/>
<path d="M82.8932 35.5403C78.8362 39.4821 73.397 41.645 67.8427 41.645C62.2883 41.645 56.8491 39.4181 52.8561 35.5403C48.7991 31.5985 46.6362 26.492 46.6362 20.8225C46.6362 15.1529 48.7991 9.99531 52.8561 6.0535C56.8491 2.16288 62.2371 0 67.8427 0C73.4482 0 78.8874 2.16288 82.8932 6.0535C86.9502 9.99531 89.0491 15.1657 89.0491 20.8225C89.0491 26.4792 86.8862 31.6497 82.8932 35.5403ZM79.5657 32.6095C82.7396 29.4356 84.4418 25.3658 84.4418 20.8225C84.4418 16.2792 82.7396 12.107 79.5657 8.93307C76.3918 5.75914 72.322 4.05699 67.8427 4.05699C63.3633 4.05699 59.2295 5.75914 56.1196 8.93307C52.9457 12.1582 51.2435 16.292 51.2435 20.8225C51.2435 25.353 52.9457 29.3716 56.1196 32.6095C59.3447 35.8346 63.3633 37.5368 67.8427 37.5368C72.322 37.5368 76.3406 35.8346 79.5657 32.6095Z" fill="#6E5E41"/>
<path d="M81.7158 43.4751V46.6362H53.9568V43.4751H81.7158Z" fill="#6E5E41"/>
<path d="M38.7526 30.9074L40.4036 29.2564L24.0732 12.9261C24.0988 12.7341 24.1244 12.5421 24.1244 12.3502C24.1244 10.6096 22.9854 9.13784 21.424 8.62591V5.56717C22.4223 5.10644 23.1133 4.09539 23.1133 2.91796C23.1133 1.30541 21.8079 0 20.1954 0C18.5828 0 17.2774 1.30541 17.2774 2.91796C17.2774 4.09539 17.9685 5.10644 18.9668 5.56717V8.62591C17.4054 9.13784 16.2664 10.6224 16.2664 12.3502C16.2664 12.5421 16.292 12.7469 16.3176 12.9261L0 29.2692L1.65095 30.9202C6.32226 35.5915 12.4269 38.2791 18.9796 38.5734V41.0819C17.9813 41.5426 17.2902 42.5536 17.2902 43.7311C17.2902 45.3436 18.5956 46.649 20.2082 46.649C21.8207 46.649 23.1261 45.3436 23.1261 43.7311C23.1261 42.5536 22.435 41.5426 21.4368 41.0819V38.5734C27.9894 38.2791 34.0941 35.5787 38.7654 30.9202L38.7526 30.9074ZM21.424 33.8893V16.8679L33.723 29.1668C30.2163 31.9952 25.9545 33.6334 21.424 33.8893ZM17.7126 10.904L18.4676 11.0448C18.5956 10.8784 18.7364 10.7376 18.9028 10.6096L18.762 9.85453L19.3379 10.3537C19.5299 10.2769 19.7219 10.2129 19.9394 10.1873L20.1954 9.47059L20.4513 10.1873C20.6561 10.2129 20.8609 10.2641 21.0529 10.3409L21.6288 9.84173L21.488 10.5968C21.6544 10.7248 21.8079 10.8656 21.9231 11.032L22.6782 10.8912L22.1791 11.4671C22.2559 11.6591 22.3199 11.8638 22.3455 12.0686L23.0622 12.3246L22.3455 12.5805C22.3199 12.7981 22.2687 12.9901 22.1919 13.182L22.691 13.7579L21.9359 13.6172C21.8079 13.7835 21.6672 13.9243 21.5008 14.0523L21.6416 14.8074L21.0657 14.3083C20.8737 14.3851 20.6689 14.4362 20.4641 14.4618L20.2082 15.1785L19.9522 14.4618C19.7347 14.4362 19.5427 14.3851 19.3507 14.3083L18.7748 14.8074L18.9156 14.0523C18.7492 13.9243 18.5956 13.7835 18.4804 13.6172L17.7254 13.7579L18.2245 13.182C18.1477 12.9901 18.0837 12.7853 18.0581 12.5805L17.3414 12.3246L18.0581 12.0686C18.0837 11.851 18.1349 11.6591 18.2245 11.4671L17.7254 10.8912L17.7126 10.904ZM6.6806 29.1668L18.9796 16.8679V33.8893C14.449 33.6334 10.1873 31.9952 6.6806 29.1668Z" fill="#6E5E41"/>
<path d="M17.3286 12.3629L18.0453 12.6189C18.0709 12.8365 18.1221 13.0284 18.2117 13.2204L17.7125 13.7963L18.4676 13.6556C18.5956 13.8219 18.7364 13.9627 18.9028 14.0907L18.762 14.8458L19.3379 14.3466C19.5299 14.4234 19.7218 14.4746 19.9394 14.5002L20.1954 15.2169L20.4513 14.5002C20.6561 14.4746 20.8609 14.4234 21.0528 14.3466L21.6288 14.8458L21.488 14.0907C21.6543 13.9627 21.8079 13.8219 21.9231 13.6556L22.6782 13.7963L22.1791 13.2204C22.2559 13.0284 22.3198 12.8365 22.3326 12.6189L23.0493 12.3629L22.3326 12.107C22.3071 11.9022 22.2559 11.6974 22.1663 11.5055L22.6654 10.9296L21.9103 11.0703C21.7823 10.904 21.6416 10.7632 21.4752 10.6352L21.616 9.88012L21.04 10.3792C20.8481 10.3025 20.6433 10.2513 20.4385 10.2257L20.1826 9.50897L19.9266 10.2257C19.709 10.2513 19.5171 10.3025 19.3251 10.392L18.7492 9.89291L18.89 10.648C18.7236 10.776 18.57 10.9168 18.4548 11.0831L17.6997 10.9424L18.1989 11.5183C18.1221 11.7102 18.0581 11.915 18.0325 12.1198L17.3158 12.3757L17.3286 12.3629Z" fill="white"/>
<path d="M20.1954 13.6812C20.9249 13.6812 21.5136 13.0925 21.5136 12.363C21.5136 11.6335 20.9249 11.0448 20.1954 11.0448C19.4659 11.0448 18.8772 11.6335 18.8772 12.363C18.8772 13.0925 19.4659 13.6812 20.1954 13.6812Z" fill="#E7AF19"/>
<path d="M120.34 55.71V46.649H121.723V54.5326H125.716V55.71H120.34Z" fill="#6E5E41"/>
<path d="M131.884 55.8764C129.773 55.8764 128.198 54.6222 128.198 52.5105V46.649H129.581V52.3697C129.581 53.7263 130.336 54.6606 131.91 54.6606C133.484 54.6606 134.252 53.7263 134.252 52.3697V46.649H135.583V52.5105C135.583 54.6222 134.009 55.8764 131.897 55.8764H131.884Z" fill="#6E5E41"/>
<path d="M144.26 55.71L142.788 53.3296C142.558 52.9585 142.302 52.5233 142.097 52.1394H142.072C141.867 52.5105 141.572 52.9968 141.355 53.3296L139.845 55.71H138.386L141.278 51.1155L138.514 46.6362H140.075L141.483 48.9143C141.688 49.2342 141.956 49.6821 142.136 50.0405H142.161C142.34 49.6821 142.596 49.2598 142.814 48.9143L144.234 46.6362H145.693L142.942 51.0259L145.821 55.6972H144.26V55.71Z" fill="#6E5E41"/>
<path d="M152.31 55.8764C150.186 55.8764 148.611 54.6222 148.611 52.5105V46.649H149.994V52.3697C149.994 53.7263 150.749 54.6606 152.323 54.6606C153.897 54.6606 154.665 53.7263 154.665 52.3697V46.649H155.996V52.5105C155.996 54.6222 154.422 55.8764 152.31 55.8764Z" fill="#6E5E41"/>
<path d="M165.185 55.71L162.331 51.7298H161.051V55.71H159.682V46.649H162.549C163.828 46.649 165.275 47.4681 165.275 49.1958C165.275 50.3988 164.558 51.1667 163.688 51.5251L166.785 55.71H165.185ZM162.318 47.8136H161.051V50.5652H162.318C163.124 50.5652 163.88 50.1429 163.88 49.183C163.88 48.2232 163.124 47.8008 162.318 47.8008V47.8136Z" fill="#6E5E41"/>
<path d="M172.544 51.5251V55.6972H171.187V51.5251L167.719 46.6362H169.229L171.046 49.1958C171.315 49.5798 171.648 50.0789 171.904 50.4756H171.93C172.186 50.0789 172.557 49.5542 172.8 49.1958L174.617 46.6362H176.025L172.544 51.5251Z" fill="#6E5E41"/>
<path d="M188.35 55.8764C185.931 55.8764 183.55 54.0975 183.55 51.1539C183.55 48.2104 185.931 46.457 188.35 46.457C190.768 46.457 193.149 48.2488 193.149 51.1539C193.149 54.0591 190.768 55.8764 188.35 55.8764ZM188.35 47.6473C186.673 47.6473 184.945 48.9143 184.945 51.1539C184.945 53.3936 186.673 54.6734 188.35 54.6734C190.026 54.6734 191.754 53.3936 191.754 51.1539C191.754 48.9143 189.988 47.6473 188.35 47.6473Z" fill="#6E5E41"/>
<path d="M203.272 48.2488C202.837 47.9672 201.941 47.6473 200.994 47.6473C199.215 47.6473 197.346 48.7991 197.346 51.1667C197.346 53.5344 199.177 54.6734 200.994 54.6734C202.069 54.6734 202.926 54.443 203.49 54.1103L203.208 55.4285C202.645 55.7228 202.005 55.8636 200.828 55.8636C198.537 55.8636 195.939 54.2639 195.939 51.1667C195.939 48.0696 198.562 46.457 200.828 46.457C202.082 46.457 202.939 46.7386 203.502 47.0585L203.259 48.2488H203.272Z" fill="#6E5E41"/>
<path d="M206.625 55.71V46.649H211.514V47.8264H208.007V50.5652H210.951V51.7426H208.007V54.5326H212.013V55.71H206.625Z" fill="#6E5E41"/>
<path d="M221.369 55.71L220.383 53.368H216.864L215.891 55.71H214.547L218.412 46.521H218.911L222.776 55.71H221.381H221.369ZM219.026 50.0533C218.898 49.7589 218.758 49.3238 218.643 48.9526H218.617C218.515 49.3366 218.361 49.7589 218.233 50.0533L217.337 52.2673H219.922L219.026 50.0533Z" fill="#6E5E41"/>
<path d="M233.309 55.902L229.06 51.2563C228.382 50.514 227.601 49.6053 226.974 48.8759H226.949C226.974 49.7077 226.974 50.4756 226.974 51.1667V55.71H225.592V46.649H226.539L230.43 50.9108C230.954 51.4867 231.773 52.3953 232.336 53.0864H232.362C232.337 52.3825 232.336 51.6019 232.336 50.9363V46.649H233.719V55.9148H233.309V55.902Z" fill="#6E5E41"/>
<path d="M242.383 55.71V46.649H243.765V54.5326H247.758V55.71H242.396H242.383Z" fill="#6E5E41"/>
<path d="M250.587 55.71V46.649H251.969V55.71H250.587Z" fill="#6E5E41"/>
<path d="M258.854 55.838H258.419L254.81 46.649H256.256L257.933 50.9619C258.176 51.5891 258.445 52.3569 258.688 53.1248H258.713C258.957 52.3697 259.213 51.6146 259.469 50.9619L261.145 46.649H262.451L258.854 55.838Z" fill="#6E5E41"/>
<path d="M265.304 55.71V46.649H266.687V55.71H265.304Z" fill="#6E5E41"/>
<path d="M278.192 55.902L273.943 51.2563C273.265 50.514 272.484 49.6053 271.857 48.8759H271.831C271.857 49.7077 271.857 50.4756 271.857 51.1667V55.71H270.475V46.649H271.422L275.313 50.9108C275.837 51.4867 276.669 52.3953 277.219 53.0864H277.245C277.219 52.3825 277.219 51.6019 277.219 50.9363V46.649H278.589V55.9148H278.179L278.192 55.902Z" fill="#6E5E41"/>
<path d="M286.856 55.8764C284.412 55.8764 281.891 54.2383 281.891 51.1795C281.891 48.1208 284.514 46.4698 286.78 46.4698C288.034 46.4698 289.045 46.7642 289.71 47.1993L289.454 48.3895C288.789 47.9672 287.893 47.66 286.946 47.66C285.167 47.66 283.299 48.8247 283.299 51.1923C283.299 53.56 285.116 54.6862 286.959 54.6862C287.803 54.6862 288.456 54.5198 288.879 54.2127V52.3313H286.792V51.2179H290.184V54.891C289.314 55.5821 288.226 55.8764 286.869 55.8764H286.856Z" fill="#6E5E41"/>
</svg>
